<?xml version="1.0" encoding="utf-8"?>
<!-- Generator: Adobe Illustrator 18.1.1, SVG Export Plug-In . SVG Version: 6.00 Build 0)  -->
<svg version="1.1" id="Layer_1" xmlns="http://www.w3.org/2000/svg" xmlns:xlink="http://www.w3.org/1999/xlink" x="0px" y="0px"
	 viewBox="0 0 24.9 24.9" enable-background="new 0 0 24.9 24.9" xml:space="preserve">
<path fill="#FFFFFF" d="M23,1H2C1.5,1,1,1.5,1,2v21c0,0.5,0.4,1,1,1h11.2v-8.6h-2.9v-3.6h2.9V8.9c0-3,1.9-4.4,4.5-4.4
	c1.3,0,2.3,0.1,2.7,0.1v3.1l-1.8,0c-1.4,0-1.8,0.7-1.8,1.7v2.4h3.6l-0.7,3.6h-2.9l0.1,8.6H23c0.5,0,1-0.4,1-1V2
	C23.9,1.5,23.5,1,23,1z"/>
</svg>
