<?xml version="1.0" encoding="utf-8"?>
<!-- Generator: Adobe Illustrator 18.1.1, SVG Export Plug-In . SVG Version: 6.00 Build 0)  -->
<svg version="1.1" id="Layer_1" xmlns="http://www.w3.org/2000/svg" xmlns:xlink="http://www.w3.org/1999/xlink" x="0px" y="0px"
	 viewBox="-21.9 741 72 72" enable-background="new -21.9 741 72 72" xml:space="preserve">
<path fill="#FFFFFF" d="M878.9,1326.3c-22.4,11.2-46.2,15.4-72.8,19.6c26.6-15.4,46.2-37.8,53.2-68.6c-22.4,15.4-49,22.4-79.8,30.8
	c-22.4-22.4-57.4-37.8-92.4-37.8c-68.6,0-126,57.4-126,126c0,11.2,0,19.6,4.2,26.6c-103.6-4.2-193.3-53.2-257.7-130.2
	c-11.2,19.6-15.4,37.8-15.4,61.6c0,42,22.4,79.8,57.4,103.6c-19.6,0-37.8-7-57.4-15.4l0,0c0,61.6,42,110.6,99.4,121.8
	c-11.2,4.2-22.4,4.2-35,4.2c-7,0-15.4,0-22.4-4.2c15.4,49,61.6,88.2,119,88.2c-42,35-95.2,53.2-155.5,53.2c-11.2,0-19.6,0-30.8,0
	c57.4,35,121.8,57.4,189.1,57.4c226.9,0,354.3-189.1,354.3-354.3c0-4.2,0-11.2,0-15.4C841.1,1375.4,863.5,1352.9,878.9,1326.3"/>
<path fill="#FFFFFF" d="M50.1,754.6c-2.6,1.3-5.4,1.8-8.6,2.3c3.1-1.8,5.4-4.4,6.3-8.1c-2.6,1.8-5.8,2.6-9.4,3.6
	c-2.6-2.6-6.8-4.4-10.9-4.4c-8.1,0-14.8,6.8-14.8,14.8c0,1.3,0,2.3,0.5,3.1c-12.2-0.5-22.7-6.3-30.3-15.3c-1.3,2.3-1.8,4.4-1.8,7.2
	c0,4.9,2.6,9.4,6.8,12.2c-2.3,0-4.4-0.8-6.8-1.8l0,0c0,7.2,4.9,13,11.7,14.3c-1.3,0.5-2.6,0.5-4.1,0.5c-0.8,0-1.8,0-2.6-0.5
	c1.8,5.8,7.2,10.4,14,10.4c-4.9,4.1-11.2,6.3-18.3,6.3c-1.3,0-2.3,0-3.6,0c6.8,4.1,14.3,6.8,22.2,6.8c26.7,0,41.7-22.2,41.7-41.7
	c0-0.5,0-1.3,0-1.8C45.7,760.4,48.3,757.7,50.1,754.6"/>
</svg>
