<?xml version="1.0" encoding="utf-8"?>
<!-- Generator: Adobe Illustrator 18.1.1, SVG Export Plug-In . SVG Version: 6.00 Build 0)  -->
<svg version="1.1" id="Layer_1" xmlns="http://www.w3.org/2000/svg" xmlns:xlink="http://www.w3.org/1999/xlink" x="0px" y="0px"
	 viewBox="0 0 174.1059 20.1785" enable-background="new 0 0 174.1059 20.1785" xml:space="preserve">
<polyline fill="none" stroke="#E12229" stroke-width="2" stroke-linejoin="round" stroke-miterlimit="10" points="5.6244,19.1785 
	1,19.1785 7.9172,1 12.5415,1 "/>
<line fill="none" stroke="#E12229" stroke-width="2" stroke-linejoin="round" stroke-miterlimit="10" x1="10.2487" y1="19.1785" x2="5.6244" y2="19.1785"/>
<line fill="none" stroke="#E12229" stroke-width="2" stroke-linejoin="round" stroke-miterlimit="10" x1="12.5415" y1="1" x2="17.1659" y2="1"/>
<polyline fill="none" stroke="#E12229" stroke-width="2" stroke-linejoin="round" stroke-miterlimit="10" points="17.1659,1 
	21.7903,1 14.8731,19.1785 10.2487,19.1785 "/>
<polyline fill="none" stroke="#E12229" stroke-width="2" stroke-linejoin="round" stroke-miterlimit="10" points="24.0831,19.1785 
	28.7074,19.1785 21.7903,1 17.1659,1 "/>
<line fill="none" stroke="#E12229" stroke-width="2" stroke-linejoin="round" stroke-miterlimit="10" x1="19.4587" y1="19.1785" x2="24.0831" y2="19.1785"/>
<line fill="none" stroke="#E12229" stroke-width="2" stroke-linejoin="round" stroke-miterlimit="10" x1="17.1659" y1="1" x2="12.5415" y2="1"/>
<polyline fill="none" stroke="#E12229" stroke-width="2" stroke-linejoin="round" stroke-miterlimit="10" points="12.5415,1 
	7.9172,1 14.8343,19.1785 19.4587,19.1785 "/>
<g>
	<path fill="#FFFFFF" d="M48.7871,13.9008L43.873,5.0605v14.1182h-2.73V0.6664h3.042l5.9277,10.6084l5.5903-10.6084h3.0938v18.5122
		h-2.73V4.8266l-4.8618,9.0742H48.7871z"/>
	<path fill="#FFFFFF" d="M73.3569,13.8744h-7.6182l-1.9238,5.3042h-2.7559l7.0718-18.5122h3.0161l7.0718,18.5122h-2.9116
		L73.3569,13.8744z M66.5708,11.5346h5.9282l-2.9639-8.1118L66.5708,11.5346z"/>
	<path fill="#FFFFFF" d="M82.249,10.8588c0,1.231,0.0688,2.2319,0.208,3.0029c0.1382,0.7715,0.2315,1.5403,0.5958,1.9735
		c0.3638,0.4331,1.02,0.5612,1.6533,0.7175c0.6323,0.1558,1.4429,0.2339,2.4307,0.2339c0.6587,0,1.3608,0,2.106,0
		s1.6641-0.0171,2.7563-0.0518l-0.4941,2.4438c-0.936,0.0347-1.8027,0.0518-2.6001,0.0518s-1.3867,0-1.7681,0
		c-1.4907,0-2.7344-0.1514-3.731-0.4546c-0.9971-0.3032-1.9521-0.6179-2.5502-1.277c-0.5977-0.6582-0.8599-1.6873-1.1026-2.7532
		c-0.2432-1.0659-0.3643-2.3613-0.3643-3.8867V8.9609c0-1.5947,0.1343-2.9253,0.4033-3.9912c0.2686-1.0659,0.5581-1.98,1.165-2.6304
		c0.6064-0.6499,1.5474-1.0527,2.5269-1.3218c0.979-0.2686,2.188-0.4028,3.627-0.4028c0.624,0,1.3086,0,2.0542,0
		c0.7451,0,1.6377,0.0176,2.6777,0.0518l-0.4941,2.4443c-0.2598,0-0.5718-0.0044-0.9355-0.0132
		c-0.3643-0.0083-0.7412-0.0171-1.1313-0.0259c-0.3896-0.0088-0.7759-0.0132-1.1567-0.0132c-0.3818,0-0.7373,0-1.0659,0
		c-1.0059,0-1.8203,0.0698-2.4443,0.208c-0.624,0.1392-1.2617,0.3643-1.6167,0.7891c-0.3555,0.4248-0.4463,1.0791-0.5674,1.8501
		c-0.1211,0.7715-0.1816,1.79-0.1816,3.0552V10.8588z"/>
	<path fill="#FFFFFF" d="M109.3408,0.6664v18.5122h-2.73v-8.2422h-9.23v8.2422h-2.73V0.6664h2.73v7.8262h9.23V0.6664H109.3408z"/>
	<path fill="#FFFFFF" d="M115.8144,0.6664v18.5122h-2.73V0.6664H115.8144z"/>
	<path fill="#FFFFFF" d="M121.9765,0.6664l9.542,13.9624V0.6664h2.73v18.5122h-2.4702l-9.4897-13.8838v13.8838h-2.73V0.6664
		H121.9765z"/>
	<path fill="#FFFFFF" d="M140.7226,0.6664v18.5122h-2.73V0.6664H140.7226z"/>
	<path fill="#FFFFFF" d="M156.7641,0.6664L156.27,3.1108h-9.0737v5.4858h8.6841l-0.4941,2.4438h-8.1899v8.1382h-2.73V0.6664
		H156.7641z"/>
	<path fill="#FFFFFF" d="M160.768,0.6664l5.2261,8.3721l5.1479-8.3721h2.9639l-6.812,10.7383v7.7739h-2.73v-7.7739l-6.8901-10.7383
		H160.768z"/>
</g>
</svg>
