<?xml version="1.0" encoding="utf-8"?>
<!-- Generator: Adobe Illustrator 18.1.1, SVG Export Plug-In . SVG Version: 6.00 Build 0)  -->
<svg version="1.1" id="Layer_1" xmlns="http://www.w3.org/2000/svg" xmlns:xlink="http://www.w3.org/1999/xlink" x="0px" y="0px"
	 viewBox="145.6715 290.2036 185.935 33.6675" enable-background="new 145.6715 290.2036 185.935 33.6675" xml:space="preserve">
<polyline fill="none" stroke="#DE0B2C" stroke-width="2" stroke-linejoin="round" stroke-miterlimit="10" points="
	152.1802,316.8274 146.6715,316.8274 154.9115,295.1726 160.4201,295.1726 "/>
<line fill="none" stroke="#DE0B2C" stroke-width="2" stroke-linejoin="round" stroke-miterlimit="10" x1="157.6888" y1="316.8274" x2="152.1802" y2="316.8274"/>
<line fill="none" stroke="#DE0B2C" stroke-width="2" stroke-linejoin="round" stroke-miterlimit="10" x1="160.4201" y1="295.1726" x2="165.9288" y2="295.1726"/>
<polyline fill="none" stroke="#DE0B2C" stroke-width="2" stroke-linejoin="round" stroke-miterlimit="10" points="
	165.9288,295.1726 171.4376,295.1726 163.1976,316.8274 157.6888,316.8274 "/>
<polyline fill="none" stroke="#DE0B2C" stroke-width="2" stroke-linejoin="round" stroke-miterlimit="10" points="
	174.1687,316.8274 179.6775,316.8274 171.4376,295.1726 165.9288,295.1726 "/>
<line fill="none" stroke="#DE0B2C" stroke-width="2" stroke-linejoin="round" stroke-miterlimit="10" x1="168.6601" y1="316.8274" x2="174.1687" y2="316.8274"/>
<line fill="none" stroke="#DE0B2C" stroke-width="2" stroke-linejoin="round" stroke-miterlimit="10" x1="165.9288" y1="295.1726" x2="160.4201" y2="295.1726"/>
<polyline fill="none" stroke="#DE0B2C" stroke-width="2" stroke-linejoin="round" stroke-miterlimit="10" points="
	160.4201,295.1726 154.9115,295.1726 163.1514,316.8274 168.6601,316.8274 "/>
<g>
	<path fill="#FFFFFF" d="M196.0776,296.4409h3.5112l5.5254,13.1626h0.0981l5.4766-13.1626h3.5117v17.3862h-2.3574v-14.292h-0.0493
		l-5.8691,14.292h-1.5718l-5.8691-14.292h-0.0488v14.292h-2.3574V296.4409z"/>
	<path fill="#FFFFFF" d="M223.9497,296.4409h2.1362l7.4409,17.3862h-2.7505l-1.7437-4.2979h-8.2754l-1.7192,4.2979h-2.7505
		L223.9497,296.4409z M228.1733,307.4668l-3.2417-7.981h-0.0488l-3.2905,7.981H228.1733z"/>
	<path fill="#FFFFFF" d="M247.8926,300.1982c-0.4912-0.6387-1.1133-1.1299-1.8662-1.4736c-0.7534-0.3438-1.5312-0.5156-2.333-0.5156
		c-0.9824,0-1.8706,0.1841-2.6646,0.5522c-0.7944,0.3687-1.4731,0.8721-2.0381,1.5103c-0.5649,0.6387-1.0029,1.3877-1.314,2.2471
		s-0.4663,1.7803-0.4663,2.7627c0,0.917,0.147,1.7842,0.4419,2.6035c0.2944,0.8184,0.7202,1.5391,1.2769,2.1602
		c0.5566,0.623,1.2358,1.1143,2.0381,1.4736c0.8022,0.3604,1.7109,0.54,2.7261,0.54c0.9985,0,1.8745-0.2041,2.6274-0.6133
		s1.3916-0.9824,1.9155-1.7188l1.9893,1.4971c-0.1313,0.1807-0.3604,0.4385-0.6875,0.7744
		c-0.3281,0.335-0.7612,0.6709-1.3018,1.0068c-0.54,0.335-1.1909,0.6299-1.9521,0.8838s-1.6416,0.3809-2.6401,0.3809
		c-1.375,0-2.6152-0.2627-3.7202-0.7861s-2.0469-1.2109-2.8242-2.0625c-0.7778-0.8516-1.3711-1.8135-1.7803-2.8857
		s-0.6138-2.1572-0.6138-3.2539c0-1.3418,0.2207-2.582,0.6631-3.7202c0.4419-1.1377,1.0596-2.1201,1.854-2.9468
		c0.7939-0.8267,1.7471-1.4692,2.8608-1.9277c1.1133-0.4585,2.3408-0.688,3.6836-0.688c1.1455,0,2.2715,0.2212,3.3765,0.6631
		c1.105,0.4424,2.0093,1.1216,2.7134,2.0386L247.8926,300.1982z"/>
	<path fill="#FFFFFF" d="M253.0737,296.4409h2.3574v7.2192h9.0122v-7.2192h2.3574v17.3862h-2.3574v-7.9561h-9.0122v7.9561h-2.3574
		V296.4409z"/>
	<path fill="#FFFFFF" d="M271.2705,296.4409h2.3574v17.3862h-2.3574V296.4409z"/>
	<path fill="#FFFFFF" d="M278.0977,296.4409h3.0942l9.5771,14.2925h0.0488v-14.2925h2.3574v17.3862h-2.9956l-9.6758-14.292h-0.0488
		v14.292h-2.3574V296.4409z"/>
	<path fill="#FFFFFF" d="M297.6445,296.4409h2.3574v17.3862h-2.3574V296.4409z"/>
	<path fill="#FFFFFF" d="M304.4712,296.4409h13.9277v2.21h-11.5703v5.4517h7.981v2.21h-7.981v7.5146h-2.3574V296.4409z"/>
	<path fill="#FFFFFF" d="M322.668,306.4111l-6.5815-9.9702h3.0205l4.7397,7.6372l4.8867-7.6372h2.873l-6.5811,9.9702v7.416h-2.3574
		V306.4111z"/>
</g>
</svg>
