<?xml version="1.0" encoding="utf-8"?>
<!-- Generator: Adobe Illustrator 18.1.1, SVG Export Plug-In . SVG Version: 6.00 Build 0)  -->
<svg version="1.1" id="Layer_1" xmlns="http://www.w3.org/2000/svg" xmlns:xlink="http://www.w3.org/1999/xlink" x="0px" y="0px"
	 viewBox="0 0 610.0026 612" enable-background="new 0 0 610.0026 612" xml:space="preserve">
<path opacity="0.5" fill="none" stroke="#306075" stroke-width="0.5" stroke-miterlimit="10" enable-background="new    " d="
	M0,71.9462c610.0026-71.9469,610.0026,469.601,610.0026,469.601"/>
<path opacity="0.5" fill="none" stroke="#306075" stroke-width="0.5" stroke-miterlimit="10" enable-background="new    " d="
	M0,541.5472c0,0-0.898-539.7518,610.0024-469.6011"/>
<path opacity="0.5" fill="none" stroke="#306075" stroke-width="0.5" stroke-miterlimit="10" enable-background="new    " d="
	M610.0026,71.9462c0,0-104.1289,388.8446-610.0024,469.6011"/>
<path opacity="0.5" fill="none" stroke="#306075" stroke-width="0.5" stroke-miterlimit="10" enable-background="new    " d="
	M610.0026,541.5472C103.7879,461.5082,0,71.9462,0,71.9462"/>
<path opacity="0.5" fill="none" stroke="#306075" stroke-width="0.5" stroke-miterlimit="10" enable-background="new    " d="
	M539.7519,1.7955C499.0795,605.7969,70.1508,611.6981,70.1508,611.6981C76.1439,45.8632,539.7519,1.7955,539.7519,1.7955z"/>
<path opacity="0.5" fill="none" stroke="#306075" stroke-width="0.5" stroke-miterlimit="10" enable-background="new    " d="
	M539.7519,611.6981c0,0-430.451-4.4066-469.6011-610.0024C70.1508,1.7955,533.9739,45.2597,539.7519,611.6981z"/>
<line opacity="0.5" fill="none" stroke="#306075" stroke-width="0.5" stroke-miterlimit="10" enable-background="new    " x1="304.9514" y1="95.8953" x2="304.9514" y2="523.3787"/>
</svg>
