<?xml version="1.0" encoding="utf-8"?>
<!-- Generator: Adobe Illustrator 18.1.1, SVG Export Plug-In . SVG Version: 6.00 Build 0)  -->
<svg version="1.1" id="Layer_1" xmlns="http://www.w3.org/2000/svg" xmlns:xlink="http://www.w3.org/1999/xlink" x="0px" y="0px"
	 viewBox="-0.25 0.0596 612.0999 613.6026" enable-background="new -0.25 0.0596 612.0999 613.6026" xml:space="preserve">
<path opacity="0.5" fill="none" stroke="#306075" stroke-width="0.5" stroke-miterlimit="10" enable-background="new    " d="
	M0,72.1345C611.5999-0.0008,611.5999,542.9653,611.5999,542.9653"/>
<path opacity="0.5" fill="none" stroke="#306075" stroke-width="0.5" stroke-miterlimit="10" enable-background="new    " d="
	M0,542.9653c0,0-0.9004-541.1653,611.5998-470.8308"/>
<path opacity="0.5" fill="none" stroke="#306075" stroke-width="0.5" stroke-miterlimit="10" enable-background="new    " d="
	M611.5999,72.1345c0,0-104.6513,312.5532-611.5998,470.8308"/>
<path opacity="0.5" fill="none" stroke="#306075" stroke-width="0.5" stroke-miterlimit="10" enable-background="new    " d="
	M611.5999,542.9653C104.6513,384.6877,0,72.1345,0,72.1345"/>
<path opacity="0.5" fill="none" stroke="#306075" stroke-width="0.5" stroke-miterlimit="10" enable-background="new    " d="
	M541.1653,1.8001C382.8877,508.6485,70.3345,613.2998,70.3345,613.2998C124.5611,159.1772,541.1653,1.8001,541.1653,1.8001z"/>
<path opacity="0.5" fill="none" stroke="#306075" stroke-width="0.5" stroke-miterlimit="10" enable-background="new    " d="
	M541.1653,613.2998c0,0-312.5532-104.6513-470.8308-611.5998C70.3345,1.8001,486.9387,159.1772,541.1653,613.2998z"/>
<line opacity="0.5" fill="none" stroke="#306075" stroke-width="0.5" stroke-miterlimit="10" enable-background="new    " x1="305.7499" y1="96.1463" x2="305.7499" y2="437.4136"/>
</svg>
