<?xml version="1.0" encoding="utf-8"?>
<!-- Generator: Adobe Illustrator 18.1.1, SVG Export Plug-In . SVG Version: 6.00 Build 0)  -->
<svg version="1.1" id="Layer_1" xmlns="http://www.w3.org/2000/svg" xmlns:xlink="http://www.w3.org/1999/xlink" x="0px" y="0px"
	 viewBox="182.5 1.7 612 611.7" enable-background="new 182.5 1.7 612 611.7" xml:space="preserve">
<path opacity="0.4" fill="none" stroke="#BA3F6C" stroke-width="0.5" stroke-miterlimit="10" enable-background="new    " d="
	M182.9,72.1C794.2,0,794.2,542.7,794.2,542.7"/>
<path opacity="0.4" fill="none" stroke="#BA3F6C" stroke-width="0.5" stroke-miterlimit="10" enable-background="new    " d="
	M182.9,542.7c0,0-0.9-540.9,611.3-470.6"/>
<path opacity="0.4" fill="none" stroke="#BA3F6C" stroke-width="0.5" stroke-miterlimit="10" enable-background="new    " d="
	M794.2,72.1c0,0-104.6,312.4-611.3,470.6"/>
<path opacity="0.4" fill="none" stroke="#BA3F6C" stroke-width="0.5" stroke-miterlimit="10" enable-background="new    " d="
	M794.2,542.7C287.5,384.5,182.9,72.1,182.9,72.1"/>
<path opacity="0.4" fill="none" stroke="#BA3F6C" stroke-width="0.5" stroke-miterlimit="10" enable-background="new    " d="
	M723.8,1.8C565.6,508.4,253.2,613,253.2,613C307.4,159.1,723.8,1.8,723.8,1.8z"/>
<path opacity="0.4" fill="none" stroke="#BA3F6C" stroke-width="0.5" stroke-miterlimit="10" enable-background="new    " d="
	M723.8,613c0,0-312.4-104.6-470.6-611.3C253.2,1.8,669.6,159.1,723.8,613z"/>
<line opacity="0.4" fill="none" stroke="#BA3F6C" stroke-width="0.5" stroke-miterlimit="10" enable-background="new    " x1="488.5" y1="96.1" x2="488.5" y2="437.2"/>
</svg>
