<?xml version="1.0" encoding="utf-8"?>
<!-- Generator: Adobe Illustrator 18.1.1, SVG Export Plug-In . SVG Version: 6.00 Build 0)  -->
<svg version="1.1" id="Layer_1" xmlns="http://www.w3.org/2000/svg" xmlns:xlink="http://www.w3.org/1999/xlink" x="0px" y="0px"
	 viewBox="0 0 282.0947 159.0661" enable-background="new 0 0 282.0947 159.0661" xml:space="preserve">
<circle fill="#CECACA" cx="46.1037" cy="111.6074" r="46.1037"/>
<g>
	<path fill="none" stroke="#CECACA" stroke-width="3.0665" stroke-miterlimit="10" d="M152.443,67.8783
		c-32.028-1.0702-58.973,28.8398-60.2439,66.873"/>
	<path fill="none" stroke="#CECACA" stroke-width="3.0665" stroke-miterlimit="10" d="M142.8936,68.1335
		c-23.404,21.8904-21.3074,62.093,4.6875,89.8853"/>
	<path fill="none" stroke="#CECACA" stroke-width="3.0665" stroke-miterlimit="10" d="M136.3216,75.0664
		c-1.0702,32.028,28.8398,58.973,66.873,60.2439"/>
	<path fill="none" stroke="#CECACA" stroke-width="3.0665" stroke-miterlimit="10" d="M136.5768,84.6159
		c21.8905,23.404,62.093,21.3074,89.8853-4.6875"/>
	<path fill="none" stroke="#CECACA" stroke-width="3.0665" stroke-miterlimit="10" d="M143.5097,91.1879
		c32.028,1.0702,58.973-28.8398,60.2439-66.873"/>
	<path fill="none" stroke="#CECACA" stroke-width="3.0665" stroke-miterlimit="10" d="M153.0592,90.9326
		c23.404-21.8904,21.3074-62.093-4.6875-89.8853"/>
	<path fill="none" stroke="#CECACA" stroke-width="3.0665" stroke-miterlimit="10" d="M159.6311,83.9997
		c1.0702-32.028-28.8398-58.973-66.873-60.2439"/>
	<path fill="none" stroke="#CECACA" stroke-width="3.0665" stroke-miterlimit="10" d="M159.3759,74.4503
		c-21.8905-23.404-62.093-21.3074-89.8853,4.6875"/>
</g>
<g>
	<path fill="none" stroke="#CECACA" stroke-width="3.0665" stroke-miterlimit="10" d="M48.9089,105.111
		c-18.4794-0.6175-34.0261,16.6399-34.7593,38.5842"/>
	<path fill="none" stroke="#CECACA" stroke-width="3.0665" stroke-miterlimit="10" d="M43.3991,105.2582
		c-13.5035,12.6303-12.2939,35.8262,2.7046,51.8617"/>
	<path fill="none" stroke="#CECACA" stroke-width="3.0665" stroke-miterlimit="10" d="M39.6072,109.2584
		c-0.6175,18.4794,16.6399,34.0261,38.5842,34.7593"/>
	<path fill="none" stroke="#CECACA" stroke-width="3.0665" stroke-miterlimit="10" d="M39.7545,114.7682
		c12.6303,13.5036,35.8262,12.2939,51.8617-2.7046"/>
	<path fill="none" stroke="#CECACA" stroke-width="3.0665" stroke-miterlimit="10" d="M43.7546,118.56
		c18.4794,0.6175,34.0261-16.6399,34.7593-38.5842"/>
	<path fill="none" stroke="#CECACA" stroke-width="3.0665" stroke-miterlimit="10" d="M49.2644,118.4128
		c13.5036-12.6303,12.2939-35.8262-2.7046-51.8617"/>
	<path fill="none" stroke="#CECACA" stroke-width="3.0665" stroke-miterlimit="10" d="M53.0563,114.4126
		c0.6175-18.4794-16.6399-34.0261-38.5842-34.7593"/>
	<path fill="none" stroke="#CECACA" stroke-width="3.0665" stroke-miterlimit="10" d="M52.9091,108.9028
		C40.2788,95.3993,17.0828,96.609,1.0474,111.6074"/>
</g>
<g>
	<path fill="none" stroke="#CECACA" stroke-width="3.0665" stroke-miterlimit="10" d="M238.3401,105.111
		c-18.4794-0.6175-34.0261,16.6399-34.7594,38.5842"/>
	<path fill="none" stroke="#CECACA" stroke-width="3.0665" stroke-miterlimit="10" d="M232.8303,105.2582
		c-13.5036,12.6303-12.2939,35.8262,2.7046,51.8617"/>
	<path fill="none" stroke="#CECACA" stroke-width="3.0665" stroke-miterlimit="10" d="M229.0384,109.2584
		c-0.6175,18.4794,16.6399,34.0261,38.5842,34.7593"/>
	<path fill="none" stroke="#CECACA" stroke-width="3.0665" stroke-miterlimit="10" d="M229.1857,114.7682
		c12.6303,13.5036,35.8262,12.2939,51.8617-2.7046"/>
	<path fill="none" stroke="#CECACA" stroke-width="3.0665" stroke-miterlimit="10" d="M233.1858,118.56
		c18.4794,0.6175,34.0261-16.6399,34.7593-38.5842"/>
	<path fill="none" stroke="#CECACA" stroke-width="3.0665" stroke-miterlimit="10" d="M238.6956,118.4128
		c13.5035-12.6303,12.2939-35.8262-2.7046-51.8617"/>
	<path fill="none" stroke="#CECACA" stroke-width="3.0665" stroke-miterlimit="10" d="M242.4875,114.4126
		c0.6175-18.4794-16.6399-34.0261-38.5842-34.7593"/>
	<path fill="none" stroke="#CECACA" stroke-width="3.0665" stroke-miterlimit="10" d="M242.3402,108.9028
		c-12.6303-13.5035-35.8262-12.2939-51.8617,2.7046"/>
</g>
<g>
	<path fill="none" stroke="#CECACA" stroke-width="3.0665" stroke-miterlimit="10" d="M68.3248,57.8694
		C57.644,57.5125,48.6583,67.487,48.2344,80.1705"/>
	<path fill="none" stroke="#CECACA" stroke-width="3.0665" stroke-miterlimit="10" d="M65.1403,57.9545
		c-7.8049,7.3001-7.1057,20.7071,1.5632,29.9753"/>
	<path fill="none" stroke="#CECACA" stroke-width="3.0665" stroke-miterlimit="10" d="M62.9486,60.2666
		c-0.3569,10.6808,9.6176,19.6666,22.3011,20.0904"/>
	<path fill="none" stroke="#CECACA" stroke-width="3.0665" stroke-miterlimit="10" d="M63.0337,63.4511
		c7.3001,7.8049,20.7071,7.1057,29.9753-1.5632"/>
	<path fill="none" stroke="#CECACA" stroke-width="3.0665" stroke-miterlimit="10" d="M65.3457,65.6428
		c10.6808,0.3569,19.6666-9.6176,20.0904-22.3011"/>
	<path fill="none" stroke="#CECACA" stroke-width="3.0665" stroke-miterlimit="10" d="M68.5303,65.5577
		c7.8049-7.3001,7.1057-20.707-1.5632-29.9753"/>
	<path fill="none" stroke="#CECACA" stroke-width="3.0665" stroke-miterlimit="10" d="M70.722,63.2457
		c0.3569-10.6808-9.6176-19.6666-22.3011-20.0904"/>
	<path fill="none" stroke="#CECACA" stroke-width="3.0665" stroke-miterlimit="10" d="M70.6369,60.0611
		c-7.3001-7.8049-20.707-7.1057-29.9753,1.5632"/>
</g>
<circle fill="#CECACA" cx="148.3717" cy="79.1377" r="78.5882"/>
<circle fill="#CECACA" cx="66.9671" cy="61.6243" r="26.9089"/>
<circle fill="#CECACA" cx="235.991" cy="112.0636" r="45.5125"/>
</svg>
