<?xml version="1.0" encoding="utf-8"?>
<!-- Generator: Adobe Illustrator 18.1.1, SVG Export Plug-In . SVG Version: 6.00 Build 0)  -->
<svg version="1.1" id="Layer_1" xmlns="http://www.w3.org/2000/svg" xmlns:xlink="http://www.w3.org/1999/xlink" x="0px" y="0px"
	 viewBox="0 0 306.6639 139.1857" enable-background="new 0 0 306.6639 139.1857" xml:space="preserve">
<path fill="#fff" d="M33-407.5699"/>
<path fill="#fff" d="M266,126.7896c0,0-5.4072-28.5-26.2682-23.0519c0,0,0.1816-5.7247-2.1936-12.5721H302.5c0,0-18.0635-9.147-36.9198-9.147
	l0.0046,0.0479c-2.9184-10.6392-15.2062-13.4841-15.2062-13.4841c0-26.7113-15.4117-28.8839-26.0176-31.1857
	c-0.8057-10.0595-11.3453-9.2193-11.3453-9.2193l-0.0951,0.1846c-3.5207-9.6828-5.7042-25.5294-27.9216-28.0959
	c-30.5012-3.5234-38.9519,29.0971-38.9519,29.0971c-11.9364,0-17.8186,8.3431-20.7225,16.3526l0,0
	c-12.175-2.0737-12.652,8.756-12.652,8.7568c-2.5165-0.5684-5.6252-0.8951-9.4521-0.7584
	c-14.3325,0.5122-30.5449,6.4283-45.374,22.4689c-3.6705,0.6033-10.3527,2.5654-14.1476,8.9113C27.6785,89.2856,0,91.1655,0,91.1655
	h163.7792c-3.0907,5.7833-5.2855,13.0239-5.9042,22.0987c0,0-19.3749-1.4746-24.004,16.9215c0,0-64,9-53.5,9s131.5,0,131.5,0
	s80.6291,0,92.6291,0S275.091,124.2896,266,126.7896z"/>
</svg>
