<?xml version="1.0" encoding="utf-8"?>
<!-- Generator: Adobe Illustrator 18.1.1, SVG Export Plug-In . SVG Version: 6.00 Build 0)  -->
<svg version="1.1" id="Layer_1" xmlns="http://www.w3.org/2000/svg" xmlns:xlink="http://www.w3.org/1999/xlink" x="0px" y="0px"
	 viewBox="59.1519 110.4409 715.3765 416.5376" enable-background="new 59.1519 110.4409 715.3765 416.5376" xml:space="preserve">
<path fill="#9DB2ED" d="M730.3215,439.7312c24.0544,0,43.6239,19.5695,43.6239,43.6234c0,24.0544-19.5695,43.6239-43.6239,43.6239
	c-24.0538,0-43.6234-19.5695-43.6234-43.6239C686.6981,459.3007,706.2676,439.7312,730.3215,439.7312z"/>
<path fill="none" stroke="#CA3353" stroke-width="8" stroke-linecap="round" stroke-miterlimit="10" d="M730.3214,464.6211
	c10.3301,0,18.7339,8.4038,18.7339,18.7334c0,10.3301-8.4038,18.7339-18.7339,18.7339c-10.3296,0-18.7334-8.4038-18.7334-18.7339
	C711.588,473.0249,719.9918,464.6211,730.3214,464.6211z"/>
<path fill="none" stroke="#CA3353" stroke-width="2" stroke-linecap="round" stroke-miterlimit="10" d="M730.3214,482.6211
	c0.3911,0,0.7339,0.3428,0.7339,0.7334c0,0.3911-0.3428,0.7339-0.7339,0.7339c-0.3906,0-0.7334-0.3428-0.7334-0.7339
	C729.588,482.9639,729.9307,482.6211,730.3214,482.6211z"/>
<path fill="#9DB2ED" d="M604.9291,439.7312c24.0539,0,43.6235,19.5695,43.6235,43.6234c0,24.0544-19.5696,43.6239-43.6235,43.6239
	c-24.0543,0-43.6239-19.5695-43.6239-43.6239C561.3052,459.3007,580.8748,439.7312,604.9291,439.7312z"/>
<path fill="none" stroke="#CA3353" stroke-width="8" stroke-linecap="round" stroke-miterlimit="10" d="M604.9288,464.6211
	c10.3301,0,18.7339,8.4038,18.7339,18.7334c0,10.3301-8.4038,18.7339-18.7339,18.7339c-10.3296,0-18.7334-8.4038-18.7334-18.7339
	C586.1954,473.0249,594.5992,464.6211,604.9288,464.6211z"/>
<path fill="none" stroke="#CA3353" stroke-width="2" stroke-linecap="round" stroke-miterlimit="10" d="M604.9288,482.6211
	c0.3911,0,0.7339,0.3428,0.7339,0.7334c0,0.3911-0.3428,0.7339-0.7339,0.7339c-0.3906,0-0.7334-0.3428-0.7334-0.7339
	C604.1954,482.9639,604.5381,482.6211,604.9288,482.6211z"/>
<path fill="#9DB2ED" d="M479.5363,439.7312c24.0544,0,43.6239,19.5695,43.6239,43.6234c0,24.0544-19.5695,43.6239-43.6239,43.6239
	c-24.0539,0-43.6234-19.5695-43.6234-43.6239C435.9129,459.3007,455.4825,439.7312,479.5363,439.7312z"/>
<path fill="none" stroke="#CA3353" stroke-width="8" stroke-linecap="round" stroke-miterlimit="10" d="M479.5362,464.6211
	c10.3301,0,18.7339,8.4038,18.7339,18.7334c0,10.3301-8.4038,18.7339-18.7339,18.7339c-10.3296,0-18.7334-8.4038-18.7334-18.7339
	C460.8028,473.0249,469.2066,464.6211,479.5362,464.6211z"/>
<path fill="none" stroke="#CA3353" stroke-width="2" stroke-linecap="round" stroke-miterlimit="10" d="M479.5362,482.6211
	c0.3911,0,0.7339,0.3428,0.7339,0.7334c0,0.3911-0.3428,0.7339-0.7339,0.7339c-0.3906,0-0.7334-0.3428-0.7334-0.7339
	C478.8028,482.9639,479.1456,482.6211,479.5362,482.6211z"/>
<path fill="#9DB2ED" d="M354.1435,439.7312c24.0544,0,43.6244,19.5695,43.6244,43.6234c0,24.0544-19.57,43.6239-43.6244,43.6239
	c-24.0544,0-43.6234-19.5695-43.6234-43.6239C310.5201,459.3007,330.0891,439.7312,354.1435,439.7312z"/>
<path fill="none" stroke="#CA3353" stroke-width="8" stroke-linecap="round" stroke-miterlimit="10" d="M354.1441,464.6211
	c10.3301,0,18.7334,8.4038,18.7334,18.7334c0,10.3301-8.4033,18.7339-18.7334,18.7339s-18.7334-8.4038-18.7334-18.7339
	C335.4107,473.0249,343.814,464.6211,354.1441,464.6211z"/>
<path fill="none" stroke="#CA3353" stroke-width="2" stroke-linecap="round" stroke-miterlimit="10" d="M354.1441,482.6211
	c0.3906,0,0.7334,0.3428,0.7334,0.7334c0,0.3911-0.3428,0.7339-0.7334,0.7339s-0.7334-0.3428-0.7334-0.7339
	C353.4107,482.9639,353.7535,482.6211,354.1441,482.6211z"/>
<path fill="#9DB2ED" d="M228.7516,439.7312c24.0544,0,43.6234,19.5695,43.6234,43.6234c0,24.0544-19.5691,43.6239-43.6234,43.6239
	s-43.6244-19.5695-43.6244-43.6239C185.1273,459.3007,204.6973,439.7312,228.7516,439.7312z"/>
<path fill="none" stroke="#CA3353" stroke-width="8" stroke-linecap="round" stroke-miterlimit="10" d="M228.7515,464.6211
	c10.3301,0,18.7334,8.4038,18.7334,18.7334c0,10.3301-8.4033,18.7339-18.7334,18.7339s-18.7334-8.4038-18.7334-18.7339
	C210.0181,473.0249,218.4215,464.6211,228.7515,464.6211z"/>
<path fill="none" stroke="#CA3353" stroke-width="2" stroke-linecap="round" stroke-miterlimit="10" d="M228.7515,482.6211
	c0.3906,0,0.7334,0.3428,0.7334,0.7334c0,0.3911-0.3428,0.7339-0.7334,0.7339s-0.7334-0.3428-0.7334-0.7339
	C228.0181,482.9639,228.3609,482.6211,228.7515,482.6211z"/>
<path fill="#9DB2ED" d="M730.3215,330.4935c24.0544,0,43.6239,19.57,43.6239,43.6239c0,24.0544-19.5695,43.6239-43.6239,43.6239
	H604.9291c-24.0543,0-43.6239-19.5695-43.6239-43.6239c0-24.0539,19.5696-43.6239,43.6239-43.6239H730.3215z"/>
<path fill="none" stroke="#CA3353" stroke-width="8" stroke-linecap="round" stroke-miterlimit="10" d="M730.3214,355.3838
	c10.3301,0,18.7339,8.4038,18.7339,18.7339c0,10.3296-8.4038,18.7334-18.7339,18.7334H604.9288
	c-10.3296,0-18.7334-8.4038-18.7334-18.7334c0-10.3301,8.4038-18.7339,18.7334-18.7339H730.3214z"/>
<path fill="none" stroke="#CA3353" stroke-width="2" stroke-linecap="round" stroke-miterlimit="10" d="M730.3214,373.3838
	c0.3911,0,0.7339,0.3428,0.7339,0.7339c0,0.3906-0.3428,0.7334-0.7339,0.7334H604.9288c-0.3906,0-0.7334-0.3428-0.7334-0.7334
	c0-0.3911,0.3428-0.7339,0.7334-0.7339H730.3214z"/>
<path fill="#9DB2ED" d="M479.5363,330.4935c24.0544,0,43.6239,19.57,43.6239,43.6239c0,24.0544-19.5695,43.6239-43.6239,43.6239
	H354.1435c-24.0544,0-43.6234-19.5695-43.6234-43.6239c0-24.0539,19.5691-43.6239,43.6234-43.6239H479.5363z"/>
<path fill="none" stroke="#CA3353" stroke-width="8" stroke-linecap="round" stroke-miterlimit="10" d="M479.5362,355.3838
	c10.3301,0,18.7339,8.4038,18.7339,18.7339c0,10.3296-8.4038,18.7334-18.7339,18.7334H354.1441
	c-10.3301,0-18.7334-8.4038-18.7334-18.7334c0-10.3301,8.4033-18.7339,18.7334-18.7339H479.5362z"/>
<path fill="none" stroke="#CA3353" stroke-width="2" stroke-linecap="round" stroke-miterlimit="10" d="M479.5362,373.3838
	c0.3911,0,0.7339,0.3428,0.7339,0.7339c0,0.3906-0.3428,0.7334-0.7339,0.7334H354.1441c-0.3906,0-0.7334-0.3428-0.7334-0.7334
	c0-0.3911,0.3428-0.7339,0.7334-0.7339H479.5362z"/>
<path fill="#9DB2ED" d="M228.7516,330.4935c24.0544,0,43.6234,19.57,43.6234,43.6239c0,24.0544-19.5691,43.6239-43.6234,43.6239
	H103.3588c-24.0544,0-43.6234-19.5695-43.6234-43.6239c0-24.0539,19.5691-43.6239,43.6234-43.6239H228.7516z"/>
<path fill="none" stroke="#CA3353" stroke-width="8" stroke-linecap="round" stroke-miterlimit="10" d="M228.7515,355.3838
	c10.3301,0,18.7334,8.4038,18.7334,18.7339c0,10.3296-8.4033,18.7334-18.7334,18.7334H103.359
	c-10.3301,0-18.7334-8.4038-18.7334-18.7334c0-10.3301,8.4033-18.7339,18.7334-18.7339H228.7515z"/>
<path fill="none" stroke="#CA3353" stroke-width="2" stroke-linecap="round" stroke-miterlimit="10" d="M228.7515,373.3838
	c0.3906,0,0.7334,0.3428,0.7334,0.7339c0,0.3906-0.3428,0.7334-0.7334,0.7334H103.359c-0.3906,0-0.7334-0.3428-0.7334-0.7334
	c0-0.3911,0.3428-0.7339,0.7334-0.7339H228.7515z"/>
<path fill="#9DB2ED" d="M730.3215,221.2564c24.0544,0,43.6239,19.57,43.6239,43.6244c0,24.0544-19.5695,43.6234-43.6239,43.6234
	H479.5363c-24.0539,0-43.6234-19.5691-43.6234-43.6234c0-24.0544,19.5695-43.6244,43.6234-43.6244H730.3215z"/>
<path fill="none" stroke="#CA3353" stroke-width="8" stroke-linecap="round" stroke-miterlimit="10" d="M730.3214,246.147
	c10.3301,0,18.7339,8.4033,18.7339,18.7334s-8.4038,18.7334-18.7339,18.7334H479.5362c-10.3296,0-18.7334-8.4033-18.7334-18.7334
	s8.4038-18.7334,18.7334-18.7334H730.3214z"/>
<path fill="none" stroke="#CA3353" stroke-width="2" stroke-linecap="round" stroke-miterlimit="10" d="M730.3214,264.147
	c0.3911,0,0.7339,0.3428,0.7339,0.7334s-0.3428,0.7334-0.7339,0.7334H479.5362c-0.3906,0-0.7334-0.3428-0.7334-0.7334
	s0.3428-0.7334,0.7334-0.7334H730.3214z"/>
<path fill="#9DB2ED" d="M354.1435,221.2564c24.0544,0,43.6244,19.57,43.6244,43.6244c0,24.0544-19.57,43.6234-43.6244,43.6234
	H103.3588c-24.0544,0-43.6234-19.5691-43.6234-43.6234c0-24.0544,19.5691-43.6244,43.6234-43.6244H354.1435z"/>
<path fill="none" stroke="#CA3353" stroke-width="8" stroke-linecap="round" stroke-miterlimit="10" d="M354.1441,246.147
	c10.3301,0,18.7334,8.4033,18.7334,18.7334s-8.4033,18.7334-18.7334,18.7334H103.359c-10.3301,0-18.7334-8.4033-18.7334-18.7334
	s8.4033-18.7334,18.7334-18.7334H354.1441z"/>
<path fill="none" stroke="#CA3353" stroke-width="2" stroke-linecap="round" stroke-miterlimit="10" d="M354.1441,264.147
	c0.3906,0,0.7334,0.3428,0.7334,0.7334s-0.3428,0.7334-0.7334,0.7334H103.359c-0.3906,0-0.7334-0.3428-0.7334-0.7334
	s0.3428-0.7334,0.7334-0.7334H354.1441z"/>
<path fill="#9DB2ED" d="M730.3215,110.4409c24.0544,0,43.6239,19.57,43.6239,43.6244s-19.5695,43.6234-43.6239,43.6234H103.3588
	c-24.0544,0-43.6234-19.5691-43.6234-43.6234s19.5691-43.6244,43.6234-43.6244H730.3215z"/>
<path fill="none" stroke="#CA3353" stroke-width="8" stroke-linecap="round" stroke-miterlimit="10" d="M730.3214,135.3315
	c10.3301,0,18.7339,8.4033,18.7339,18.7334s-8.4038,18.7334-18.7339,18.7334H103.359c-10.3291,0-18.7334-8.4033-18.7334-18.7334
	s8.4043-18.7334,18.7334-18.7334H730.3214z"/>
<path fill="none" stroke="#CA3353" stroke-width="2" stroke-linecap="round" stroke-miterlimit="10" d="M730.3214,153.3315
	c0.3911,0,0.7339,0.3428,0.7339,0.7334s-0.3428,0.7334-0.7339,0.7334H103.359c-0.3906,0-0.7334-0.3428-0.7334-0.7334
	s0.3428-0.7334,0.7334-0.7334H730.3214z"/>
<path fill="#9DB2ED" d="M103.3592,439.7312c24.0544,0,43.6234,19.5695,43.6234,43.6234c0,24.0544-19.5691,43.6239-43.6234,43.6239
	s-43.6244-19.5695-43.6244-43.6239C59.7348,459.3007,79.3049,439.7312,103.3592,439.7312z"/>
<path fill="none" stroke="#CA3353" stroke-width="8" stroke-linecap="round" stroke-miterlimit="10" d="M103.359,464.6211
	c10.3301,0,18.7334,8.4038,18.7334,18.7334c0,10.3301-8.4033,18.7339-18.7334,18.7339s-18.7334-8.4038-18.7334-18.7339
	C84.6256,473.0249,93.0289,464.6211,103.359,464.6211z"/>
<path fill="none" stroke="#CA3353" stroke-width="2" stroke-linecap="round" stroke-miterlimit="10" d="M103.359,482.6211
	c0.3906,0,0.7334,0.3428,0.7334,0.7334c0,0.3911-0.3428,0.7339-0.7334,0.7339s-0.7334-0.3428-0.7334-0.7339
	C102.6256,482.9639,102.9683,482.6211,103.359,482.6211z"/>
</svg>
