<?xml version="1.0" encoding="utf-8"?>
<!-- Generator: Adobe Illustrator 18.1.1, SVG Export Plug-In . SVG Version: 6.00 Build 0)  -->
<svg version="1.1" id="Layer_3" xmlns="http://www.w3.org/2000/svg" xmlns:xlink="http://www.w3.org/1999/xlink" x="0px" y="0px"
	 viewBox="193.4215 152.5968 403.6322 202.5866" enable-background="new 193.4215 152.5968 403.6322 202.5866" xml:space="preserve"
	>
<g>
	<g>
		<path fill="none" stroke="#9DB2ED" stroke-width="1.997" stroke-linecap="round" stroke-miterlimit="10" d="M250.028,314.3623
			c23.4838-19.7385,58.5224-16.7022,78.2608,6.7816l0.0523,0.2092c19.7385,23.4838,54.777,26.52,78.2608,6.7816"/>
		<path fill="none" stroke="#9DB2ED" stroke-width="1.997" stroke-linecap="round" stroke-miterlimit="10" d="M308.5115,273.6063
			c-30.5627-2.6484-57.4857,19.9807-60.134,50.5435"/>
		<path fill="none" stroke="#9DB2ED" stroke-width="1.997" stroke-linecap="round" stroke-miterlimit="10" d="M254.1311,332.2377
			c-19.7384-23.4838-16.7022-58.5224,6.7816-78.2608l0.2092,0c23.4838-19.7384,26.52-54.777,6.7816-78.2608"/>
		<path fill="none" stroke="#9DB2ED" stroke-width="1.997" stroke-linecap="round" stroke-miterlimit="10" d="M213.3751,273.7542
			c-2.6484,30.5627,19.9807,57.4857,50.5435,60.1341"/>
		<path fill="none" stroke="#9DB2ED" stroke-width="1.997" stroke-linecap="round" stroke-miterlimit="10" d="M193.7457,321.3531
			c19.7384,23.4838,54.777,26.52,78.2608,6.7816"/>
		<path fill="none" stroke="#9DB2ED" stroke-width="1.997" stroke-linecap="round" stroke-miterlimit="10" d="M213.523,368.8906
			c30.5628,2.6484,57.4857-19.9807,60.1341-50.5435"/>
		<path fill="none" stroke="#9DB2ED" stroke-width="1.997" stroke-linecap="round" stroke-miterlimit="10" d="M261.1219,388.5201
			c23.4838-19.7385,26.52-54.777,6.7816-78.2608"/>
		<path fill="none" stroke="#9DB2ED" stroke-width="1.997" stroke-linecap="round" stroke-miterlimit="10" d="M308.6594,368.7427
			c2.6484-30.5627-19.9807-57.4857-50.5434-60.1341"/>
	</g>
	<g>
		<path fill="none" stroke="#9DB2ED" stroke-width="1.997" stroke-linecap="round" stroke-miterlimit="10" d="M597.4798,186.6007
			c-19.7384-23.4838-54.777-26.52-78.2608-6.7816"/>
		<path fill="none" stroke="#9DB2ED" stroke-width="1.997" stroke-linecap="round" stroke-miterlimit="10" d="M577.7025,139.0631
			c-30.5627-2.6484-57.4857,19.9807-60.134,50.5435"/>
		<path fill="none" stroke="#9DB2ED" stroke-width="1.997" stroke-linecap="round" stroke-miterlimit="10" d="M530.1036,119.4337
			c-23.4838,19.7385-26.52,54.777-6.7816,78.2608"/>
		<path fill="none" stroke="#9DB2ED" stroke-width="1.997" stroke-linecap="round" stroke-miterlimit="10" d="M482.5661,139.2111
			c-2.6484,30.5628,19.9807,57.4857,50.5435,60.1341"/>
		<path fill="none" stroke="#9DB2ED" stroke-width="1.997" stroke-linecap="round" stroke-miterlimit="10" d="M482.714,234.3475
			c30.5627,2.6484,57.4857-19.9807,60.1341-50.5435"/>
		<path fill="none" stroke="#9DB2ED" stroke-width="1.997" stroke-linecap="round" stroke-miterlimit="10" d="M577.8504,234.1995
			c2.6484-30.5628-19.9807-57.4857-50.5435-60.1341"/>
		<path fill="none" stroke="#9DB2ED" stroke-width="1.997" stroke-linecap="round" stroke-miterlimit="10" d="M523.3221,332.2377
			c-19.7385-23.4838-16.7023-58.5224,6.7816-78.2608l0.2092,0c23.4838-19.7384,26.5201-54.777,6.7816-78.2608"/>
	</g>
	<g>
		<path fill="none" stroke="#9DB2ED" stroke-width="1.997" stroke-linecap="round" stroke-miterlimit="10" d="M308.5115,139.0631
			c-30.5627-2.6484-57.4857,19.9807-60.134,50.5435"/>
		<path fill="none" stroke="#9DB2ED" stroke-width="1.997" stroke-linecap="round" stroke-miterlimit="10" d="M260.9127,119.4337
			c-23.4838,19.7385-26.52,54.777-6.7816,78.2608"/>
		<path fill="none" stroke="#9DB2ED" stroke-width="1.997" stroke-linecap="round" stroke-miterlimit="10" d="M213.3751,139.2111
			c-2.6484,30.5628,19.9807,57.4857,50.5435,60.1341"/>
		<path fill="none" stroke="#9DB2ED" stroke-width="1.997" stroke-linecap="round" stroke-miterlimit="10" d="M193.7457,186.8099
			c19.7384,23.4838,54.777,26.52,78.2608,6.7816"/>
		<path fill="none" stroke="#9DB2ED" stroke-width="1.997" stroke-linecap="round" stroke-miterlimit="10" d="M213.523,234.3475
			c30.5628,2.6484,57.4857-19.9807,60.1341-50.5435"/>
		<path fill="none" stroke="#9DB2ED" stroke-width="1.997" stroke-linecap="round" stroke-miterlimit="10" d="M308.6594,234.1995
			c2.6484-30.5628-19.9807-57.4857-50.5434-60.1341"/>
	</g>
	<g>
		<path fill="none" stroke="#9DB2ED" stroke-width="1.997" stroke-linecap="round" stroke-miterlimit="10" d="M597.4798,321.1439
			c-19.7384-23.4838-54.777-26.5201-78.2608-6.7816"/>
		<path fill="none" stroke="#9DB2ED" stroke-width="1.997" stroke-linecap="round" stroke-miterlimit="10" d="M577.7025,273.6063
			c-30.5627-2.6484-57.4857,19.9807-60.134,50.5435"/>
		<path fill="none" stroke="#9DB2ED" stroke-width="1.997" stroke-linecap="round" stroke-miterlimit="10" d="M482.5661,273.7542
			c-2.6484,30.5627,19.9807,57.4857,50.5435,60.1341"/>
		<path fill="none" stroke="#9DB2ED" stroke-width="1.997" stroke-linecap="round" stroke-miterlimit="10" d="M482.714,368.8906
			c30.5627,2.6484,57.4857-19.9807,60.1341-50.5435"/>
		<path fill="none" stroke="#9DB2ED" stroke-width="1.997" stroke-linecap="round" stroke-miterlimit="10" d="M530.3128,388.5201
			c23.4838-19.7385,26.5201-54.777,6.7816-78.2608"/>
		<path fill="none" stroke="#9DB2ED" stroke-width="1.997" stroke-linecap="round" stroke-miterlimit="10" d="M577.8504,368.7427
			c2.6484-30.5627-19.9807-57.4857-50.5435-60.1341"/>
	</g>
</g>
<g>
	<path fill="none" stroke="#9DB2ED" stroke-width="1.997" stroke-linecap="round" stroke-miterlimit="10" d="M241.1353,206.387
		c-30.5628-2.6484-57.4857,19.9807-60.1341,50.5435"/>
	<path fill="none" stroke="#9DB2ED" stroke-width="1.997" stroke-linecap="round" stroke-miterlimit="10" d="M145.9989,206.535
		c-2.6484,30.5627,19.9807,57.4857,50.5435,60.134"/>
	<path fill="none" stroke="#9DB2ED" stroke-width="1.997" stroke-linecap="round" stroke-miterlimit="10" d="M126.3695,254.1338
		c19.7384,23.4838,54.777,26.52,78.2608,6.7816"/>
	<path fill="none" stroke="#9DB2ED" stroke-width="1.997" stroke-linecap="round" stroke-miterlimit="10" d="M146.1469,301.6714
		c30.5627,2.6483,57.4857-19.9807,60.1341-50.5435"/>
	<path fill="none" stroke="#9DB2ED" stroke-width="1.997" stroke-linecap="round" stroke-miterlimit="10" d="M241.2832,301.5234
		c2.6484-30.5627-19.9807-57.4857-50.5435-60.134"/>
	<path fill="none" stroke="#9DB2ED" stroke-width="1.997" stroke-linecap="round" stroke-miterlimit="10" d="M200.5273,108.4445
		c19.7384,23.4838,16.7022,58.5224-6.7816,78.2608l-0.2092,0.0523c-23.4838,19.7384-26.52,54.777-6.7816,78.2608"/>
	<path fill="none" stroke="#9DB2ED" stroke-width="1.997" stroke-linecap="round" stroke-miterlimit="10" d="M186.7549,399.5616
		c-19.7384-23.4838-16.7022-58.5224,6.7816-78.2608h0.2092c23.4838-19.7385,26.52-54.777,6.7816-78.2608"/>
</g>
<g>
	<path fill="none" stroke="#9DB2ED" stroke-width="1.997" stroke-linecap="round" stroke-miterlimit="10" d="M664.6991,253.9246
		c-19.7384-23.4838-54.777-26.52-78.2608-6.7816"/>
	<path fill="none" stroke="#9DB2ED" stroke-width="1.997" stroke-linecap="round" stroke-miterlimit="10" d="M644.9218,206.387
		c-30.5627-2.6484-57.4857,19.9807-60.134,50.5435"/>
	<path fill="none" stroke="#9DB2ED" stroke-width="1.997" stroke-linecap="round" stroke-miterlimit="10" d="M549.7854,206.535
		c-2.6484,30.5627,19.9807,57.4857,50.5435,60.134"/>
	<path fill="none" stroke="#9DB2ED" stroke-width="1.997" stroke-linecap="round" stroke-miterlimit="10" d="M549.9333,301.6714
		c30.5627,2.6483,57.4857-19.9807,60.1341-50.5435"/>
	<path fill="none" stroke="#9DB2ED" stroke-width="1.997" stroke-linecap="round" stroke-miterlimit="10" d="M645.0697,301.5234
		c2.6484-30.5627-19.9807-57.4857-50.5435-60.134"/>
	<path fill="none" stroke="#9DB2ED" stroke-width="1.997" stroke-linecap="round" stroke-miterlimit="10" d="M604.3137,108.4445
		c19.7385,23.4838,16.7022,58.5224-6.7816,78.2608l-0.2092,0.0523c-23.4838,19.7384-26.52,54.777-6.7816,78.2608"/>
	<path fill="none" stroke="#9DB2ED" stroke-width="1.997" stroke-linecap="round" stroke-miterlimit="10" d="M590.5413,399.5616
		c-19.7384-23.4838-16.7022-58.5224,6.7816-78.2608h0.2092c23.4838-19.7385,26.5201-54.777,6.7816-78.2608"/>
</g>
<g>
	<path fill="none" stroke="#9DB2ED" stroke-width="1.997" stroke-linecap="round" stroke-miterlimit="10" d="M451.8428,112.5475
		c23.4838-19.7384,58.5224-16.7022,78.2608,6.7816l0.0523,0.2092c19.7385,23.4838,54.777,26.52,78.2608,6.7816"/>
	<path fill="none" stroke="#9DB2ED" stroke-width="1.997" stroke-linecap="round" stroke-miterlimit="10" d="M510.3263,71.7916
		c-30.5628-2.6484-57.4857,19.9807-60.1341,50.5435"/>
	<path fill="none" stroke="#9DB2ED" stroke-width="1.997" stroke-linecap="round" stroke-miterlimit="10" d="M462.7274,52.1621
		c-23.4838,19.7384-26.52,54.777-6.7816,78.2608"/>
	<path fill="none" stroke="#9DB2ED" stroke-width="1.997" stroke-linecap="round" stroke-miterlimit="10" d="M415.1899,71.9395
		c-2.6483,30.5628,19.9807,57.4857,50.5435,60.1341"/>
	<path fill="none" stroke="#9DB2ED" stroke-width="1.997" stroke-linecap="round" stroke-miterlimit="10" d="M415.3378,167.0759
		c30.5627,2.6484,57.4857-19.9807,60.1341-50.5434"/>
	<path fill="none" stroke="#9DB2ED" stroke-width="1.997" stroke-linecap="round" stroke-miterlimit="10" d="M510.4742,166.9279
		c2.6483-30.5628-19.9807-57.4857-50.5435-60.1341"/>
	<path fill="none" stroke="#9DB2ED" stroke-width="1.997" stroke-linecap="round" stroke-miterlimit="10" d="M317.2473,112.5475
		c23.4838-19.7384,58.5224-16.7022,78.2608,6.7816l0.0523,0.2092c19.7385,23.4838,54.777,26.52,78.2608,6.7816"/>
</g>
<g>
	<path fill="none" stroke="#9DB2ED" stroke-width="1.997" stroke-linecap="round" stroke-miterlimit="10" d="M375.7308,71.7916
		c-30.5627-2.6484-57.4857,19.9807-60.1341,50.5435"/>
	<path fill="none" stroke="#9DB2ED" stroke-width="1.997" stroke-linecap="round" stroke-miterlimit="10" d="M328.132,52.1621
		c-23.4838,19.7384-26.5201,54.777-6.7816,78.2608"/>
	<path fill="none" stroke="#9DB2ED" stroke-width="1.997" stroke-linecap="round" stroke-miterlimit="10" d="M280.5944,71.9395
		c-2.6484,30.5628,19.9807,57.4857,50.5435,60.1341"/>
	<path fill="none" stroke="#9DB2ED" stroke-width="1.997" stroke-linecap="round" stroke-miterlimit="10" d="M280.7423,167.0759
		c30.5627,2.6484,57.4857-19.9807,60.1341-50.5434"/>
	<path fill="none" stroke="#9DB2ED" stroke-width="1.997" stroke-linecap="round" stroke-miterlimit="10" d="M375.8787,166.9279
		c2.6484-30.5628-19.9807-57.4857-50.5435-60.1341"/>
	<path fill="none" stroke="#9DB2ED" stroke-width="1.997" stroke-linecap="round" stroke-miterlimit="10" d="M182.6519,112.5475
		c23.4838-19.7384,58.5224-16.7022,78.2608,6.7816l0.0523,0.2092c19.7384,23.4838,54.777,26.52,78.2608,6.7816"/>
</g>
<g>
	<path fill="none" stroke="#9DB2ED" stroke-width="1.997" stroke-linecap="round" stroke-miterlimit="10" d="M317.2473,381.6862
		c23.4838-19.7385,58.5224-16.7022,78.2608,6.7816l0.0523,0.2092c19.7385,23.4838,54.777,26.52,78.2608,6.7816"/>
	<path fill="none" stroke="#9DB2ED" stroke-width="1.997" stroke-linecap="round" stroke-miterlimit="10" d="M280.5944,341.0781
		c-2.6484,30.5628,19.9807,57.4857,50.5435,60.1341"/>
	<path fill="none" stroke="#9DB2ED" stroke-width="1.997" stroke-linecap="round" stroke-miterlimit="10" d="M280.7423,436.2145
		c30.5627,2.6483,57.4857-19.9807,60.1341-50.5435"/>
	<path fill="none" stroke="#9DB2ED" stroke-width="1.997" stroke-linecap="round" stroke-miterlimit="10" d="M328.3412,455.844
		c23.4838-19.7385,26.52-54.777,6.7816-78.2608"/>
	<path fill="none" stroke="#9DB2ED" stroke-width="1.997" stroke-linecap="round" stroke-miterlimit="10" d="M375.8787,436.0666
		c2.6484-30.5627-19.9807-57.4857-50.5435-60.1341"/>
	<path fill="none" stroke="#9DB2ED" stroke-width="1.997" stroke-linecap="round" stroke-miterlimit="10" d="M375.7308,340.9302
		c-30.5627-2.6484-57.4857,19.9807-60.1341,50.5435"/>
	<path fill="none" stroke="#9DB2ED" stroke-width="1.997" stroke-linecap="round" stroke-miterlimit="10" d="M182.6519,381.6862
		c23.4838-19.7385,58.5224-16.7022,78.2608,6.7816l0.0523,0.2092c19.7384,23.4838,54.777,26.52,78.2608,6.7816"/>
</g>
<g>
	<path fill="none" stroke="#9DB2ED" stroke-width="1.997" stroke-linecap="round" stroke-miterlimit="10" d="M451.8428,381.6862
		c23.4838-19.7385,58.5224-16.7022,78.2608,6.7816l0.0523,0.2092c19.7385,23.4838,54.777,26.52,78.2608,6.7816"/>
	<path fill="none" stroke="#9DB2ED" stroke-width="1.997" stroke-linecap="round" stroke-miterlimit="10" d="M510.3263,340.9302
		c-30.5628-2.6484-57.4857,19.9807-60.1341,50.5435"/>
	<path fill="none" stroke="#9DB2ED" stroke-width="1.997" stroke-linecap="round" stroke-miterlimit="10" d="M415.1899,341.0781
		c-2.6483,30.5628,19.9807,57.4857,50.5435,60.1341"/>
	<path fill="none" stroke="#9DB2ED" stroke-width="1.997" stroke-linecap="round" stroke-miterlimit="10" d="M415.3378,436.2145
		c30.5627,2.6483,57.4857-19.9807,60.1341-50.5435"/>
	<path fill="none" stroke="#9DB2ED" stroke-width="1.997" stroke-linecap="round" stroke-miterlimit="10" d="M462.9366,455.844
		c23.4838-19.7385,26.5201-54.777,6.7816-78.2608"/>
	<path fill="none" stroke="#9DB2ED" stroke-width="1.997" stroke-linecap="round" stroke-miterlimit="10" d="M510.4742,436.0666
		c2.6483-30.5627-19.9807-57.4857-50.5435-60.1341"/>
</g>
<g>
	<path fill="none" stroke="#9DB2ED" stroke-width="1.997" stroke-linecap="round" stroke-miterlimit="10" d="M549.9333,167.0759
		c30.5627,2.6484,57.4857-19.9807,60.1341-50.5434"/>
	<path fill="none" stroke="#9DB2ED" stroke-width="1.997" stroke-linecap="round" stroke-miterlimit="10" d="M549.7854,341.0781
		c-2.6484,30.5628,19.9807,57.4857,50.5435,60.1341"/>
	<path fill="none" stroke="#9DB2ED" stroke-width="1.997" stroke-linecap="round" stroke-miterlimit="10" d="M241.2832,166.9279
		c2.6484-30.5628-19.9807-57.4857-50.5435-60.1341"/>
	<path fill="none" stroke="#9DB2ED" stroke-width="1.997" stroke-linecap="round" stroke-miterlimit="10" d="M241.1353,340.9302
		c-30.5628-2.6484-57.4857,19.9807-60.1341,50.5435"/>
</g>
<g>
	<path fill="none" stroke="#9DB2ED" stroke-width="1.997" stroke-linecap="round" stroke-miterlimit="10" d="M384.6235,179.8191
		c23.4838-19.7384,58.5224-16.7022,78.2608,6.7816l0.0523,0.2092c19.7385,23.4838,54.777,26.52,78.2608,6.7816"/>
	<path fill="none" stroke="#9DB2ED" stroke-width="1.997" stroke-linecap="round" stroke-miterlimit="10" d="M443.107,139.0631
		c-30.5627-2.6484-57.4857,19.9807-60.1341,50.5435"/>
	<path fill="none" stroke="#9DB2ED" stroke-width="1.997" stroke-linecap="round" stroke-miterlimit="10" d="M395.5081,119.4337
		c-23.4838,19.7385-26.52,54.777-6.7816,78.2608"/>
	<path fill="none" stroke="#9DB2ED" stroke-width="1.997" stroke-linecap="round" stroke-miterlimit="10" d="M347.9706,139.2111
		c-2.6484,30.5628,19.9807,57.4857,50.5435,60.1341"/>
	<path fill="none" stroke="#9DB2ED" stroke-width="1.997" stroke-linecap="round" stroke-miterlimit="10" d="M348.1185,234.3475
		c30.5627,2.6484,57.4857-19.9807,60.1341-50.5435"/>
	<path fill="none" stroke="#9DB2ED" stroke-width="1.997" stroke-linecap="round" stroke-miterlimit="10" d="M443.2549,234.1995
		c2.6484-30.5628-19.9807-57.4857-50.5435-60.1341"/>
	<path fill="none" stroke="#9DB2ED" stroke-width="1.997" stroke-linecap="round" stroke-miterlimit="10" d="M388.7266,332.2377
		c-19.7384-23.4838-16.7022-58.5224,6.7816-78.2608l0.2092,0c23.4838-19.7384,26.5201-54.777,6.7816-78.2608"/>
	<path fill="none" stroke="#9DB2ED" stroke-width="1.997" stroke-linecap="round" stroke-miterlimit="10" d="M250.028,179.8191
		c23.4838-19.7384,58.5224-16.7022,78.2608,6.7816l0.0523,0.2092c19.7385,23.4838,54.777,26.52,78.2608,6.7816"/>
</g>
<g>
	<path fill="none" stroke="#9DB2ED" stroke-width="1.997" stroke-linecap="round" stroke-miterlimit="10" d="M451.8428,247.143
		c23.4838-19.7384,58.5224-16.7022,78.2608,6.7816l0.0523,0.2092c19.7385,23.4838,54.777,26.52,78.2608,6.7816"/>
	<path fill="none" stroke="#9DB2ED" stroke-width="1.997" stroke-linecap="round" stroke-miterlimit="10" d="M510.3263,206.387
		c-30.5628-2.6484-57.4857,19.9807-60.1341,50.5435"/>
	<path fill="none" stroke="#9DB2ED" stroke-width="1.997" stroke-linecap="round" stroke-miterlimit="10" d="M415.1899,206.535
		c-2.6483,30.5627,19.9807,57.4857,50.5435,60.134"/>
	<path fill="none" stroke="#9DB2ED" stroke-width="1.997" stroke-linecap="round" stroke-miterlimit="10" d="M415.3378,301.6714
		c30.5627,2.6483,57.4857-19.9807,60.1341-50.5435"/>
	<path fill="none" stroke="#9DB2ED" stroke-width="1.997" stroke-linecap="round" stroke-miterlimit="10" d="M510.4742,301.5234
		c2.6483-30.5627-19.9807-57.4857-50.5435-60.134"/>
	<path fill="none" stroke="#9DB2ED" stroke-width="1.997" stroke-linecap="round" stroke-miterlimit="10" d="M469.7182,108.4445
		c19.7385,23.4838,16.7022,58.5224-6.7816,78.2608l-0.2092,0.0523c-23.4838,19.7384-26.52,54.777-6.7816,78.2608"/>
	<path fill="none" stroke="#9DB2ED" stroke-width="1.997" stroke-linecap="round" stroke-miterlimit="10" d="M317.2473,247.143
		c23.4838-19.7384,58.5224-16.7022,78.2608,6.7816l0.0523,0.2092c19.7385,23.4838,54.777,26.52,78.2608,6.7816"/>
	<path fill="none" stroke="#9DB2ED" stroke-width="1.997" stroke-linecap="round" stroke-miterlimit="10" d="M455.9459,399.5616
		c-19.7384-23.4838-16.7022-58.5224,6.7816-78.2608h0.2092c23.4838-19.7385,26.5201-54.777,6.7816-78.2608"/>
</g>
<g>
	<path fill="none" stroke="#9DB2ED" stroke-width="1.997" stroke-linecap="round" stroke-miterlimit="10" d="M375.7308,206.387
		c-30.5627-2.6484-57.4857,19.9807-60.1341,50.5435"/>
	<path fill="none" stroke="#9DB2ED" stroke-width="1.997" stroke-linecap="round" stroke-miterlimit="10" d="M280.5944,206.535
		c-2.6484,30.5627,19.9807,57.4857,50.5435,60.134"/>
	<path fill="none" stroke="#9DB2ED" stroke-width="1.997" stroke-linecap="round" stroke-miterlimit="10" d="M280.7423,301.6714
		c30.5627,2.6483,57.4857-19.9807,60.1341-50.5435"/>
	<path fill="none" stroke="#9DB2ED" stroke-width="1.997" stroke-linecap="round" stroke-miterlimit="10" d="M375.8787,301.5234
		c2.6484-30.5627-19.9807-57.4857-50.5435-60.134"/>
	<path fill="none" stroke="#9DB2ED" stroke-width="1.997" stroke-linecap="round" stroke-miterlimit="10" d="M335.1227,108.4445
		c19.7385,23.4838,16.7022,58.5224-6.7816,78.2608l-0.2092,0.0523c-23.4838,19.7384-26.5201,54.777-6.7816,78.2608"/>
	<path fill="none" stroke="#9DB2ED" stroke-width="1.997" stroke-linecap="round" stroke-miterlimit="10" d="M321.3504,399.5616
		c-19.7385-23.4838-16.7022-58.5224,6.7816-78.2608h0.2092c23.4838-19.7385,26.52-54.777,6.7816-78.2608"/>
	<path fill="none" stroke="#9DB2ED" stroke-width="1.997" stroke-linecap="round" stroke-miterlimit="10" d="M182.6519,247.143
		c23.4838-19.7384,58.5224-16.7022,78.2608,6.7816l0.0523,0.2092c19.7384,23.4838,54.777,26.52,78.2608,6.7816"/>
</g>
<g>
	<path fill="none" stroke="#9DB2ED" stroke-width="1.997" stroke-linecap="round" stroke-miterlimit="10" d="M384.6235,314.3623
		c23.4838-19.7385,58.5224-16.7022,78.2608,6.7816l0.0523,0.2092c19.7385,23.4838,54.777,26.52,78.2608,6.7816"/>
	<path fill="none" stroke="#9DB2ED" stroke-width="1.997" stroke-linecap="round" stroke-miterlimit="10" d="M443.107,273.6063
		c-30.5627-2.6484-57.4857,19.9807-60.1341,50.5435"/>
	<path fill="none" stroke="#9DB2ED" stroke-width="1.997" stroke-linecap="round" stroke-miterlimit="10" d="M347.9706,273.7542
		c-2.6484,30.5627,19.9807,57.4857,50.5435,60.1341"/>
	<path fill="none" stroke="#9DB2ED" stroke-width="1.997" stroke-linecap="round" stroke-miterlimit="10" d="M348.1185,368.8906
		c30.5627,2.6484,57.4857-19.9807,60.1341-50.5435"/>
	<path fill="none" stroke="#9DB2ED" stroke-width="1.997" stroke-linecap="round" stroke-miterlimit="10" d="M443.2549,368.7427
		c2.6484-30.5627-19.9807-57.4857-50.5435-60.1341"/>
	<path fill="none" stroke="#9DB2ED" stroke-width="1.997" stroke-linecap="round" stroke-miterlimit="10" d="M395.7173,388.5201
		c23.4838-19.7385,26.5201-54.777,6.7816-78.2608"/>
</g>
<g>
	<g>
		<path fill="none" stroke="#CA3353" stroke-width="1.997" stroke-linecap="round" stroke-miterlimit="10" d="M541.0406,314.3623
			c-23.4838-19.7385-58.5224-16.7022-78.2608,6.7816l-0.0523,0.2092c-19.7384,23.4838-54.777,26.52-78.2608,6.7816"/>
		<path fill="none" stroke="#CA3353" stroke-width="1.997" stroke-linecap="round" stroke-miterlimit="10" d="M482.5571,273.6063
			c30.5628-2.6484,57.4857,19.9807,60.1341,50.5435"/>
		<path fill="none" stroke="#CA3353" stroke-width="1.997" stroke-linecap="round" stroke-miterlimit="10" d="M536.9375,332.2377
			c19.7385-23.4838,16.7023-58.5224-6.7816-78.2608l-0.2092,0c-23.4839-19.7384-26.5201-54.777-6.7816-78.2608"/>
		<path fill="none" stroke="#CA3353" stroke-width="1.997" stroke-linecap="round" stroke-miterlimit="10" d="M577.6935,273.7542
			c2.6484,30.5627-19.9807,57.4857-50.5435,60.1341"/>
		<path fill="none" stroke="#CA3353" stroke-width="1.997" stroke-linecap="round" stroke-miterlimit="10" d="M597.3229,321.3531
			c-19.7385,23.4838-54.777,26.52-78.2608,6.7816"/>
		<path fill="none" stroke="#CA3353" stroke-width="1.997" stroke-linecap="round" stroke-miterlimit="10" d="M577.5456,368.8906
			c-30.5627,2.6484-57.4857-19.9807-60.1341-50.5435"/>
		<path fill="none" stroke="#CA3353" stroke-width="1.997" stroke-linecap="round" stroke-miterlimit="10" d="M529.9468,388.5201
			c-23.4839-19.7385-26.5201-54.777-6.7816-78.2608"/>
		<path fill="none" stroke="#CA3353" stroke-width="1.997" stroke-linecap="round" stroke-miterlimit="10" d="M482.4092,368.7427
			c-2.6484-30.5627,19.9807-57.4857,50.5435-60.1341"/>
	</g>
	<g>
		<path fill="none" stroke="#CA3353" stroke-width="1.997" stroke-linecap="round" stroke-miterlimit="10" d="M193.5888,186.6007
			c19.7384-23.4838,54.777-26.52,78.2608-6.7816"/>
		<path fill="none" stroke="#CA3353" stroke-width="1.997" stroke-linecap="round" stroke-miterlimit="10" d="M213.3661,139.0631
			c30.5628-2.6484,57.4857,19.9807,60.1341,50.5435"/>
		<path fill="none" stroke="#CA3353" stroke-width="1.997" stroke-linecap="round" stroke-miterlimit="10" d="M260.965,119.4337
			c23.4838,19.7385,26.52,54.777,6.7816,78.2608"/>
		<path fill="none" stroke="#CA3353" stroke-width="1.997" stroke-linecap="round" stroke-miterlimit="10" d="M308.5025,139.2111
			c2.6484,30.5628-19.9807,57.4857-50.5435,60.1341"/>
		<path fill="none" stroke="#CA3353" stroke-width="1.997" stroke-linecap="round" stroke-miterlimit="10" d="M308.3546,234.3475
			c-30.5627,2.6484-57.4857-19.9807-60.134-50.5435"/>
		<path fill="none" stroke="#CA3353" stroke-width="1.997" stroke-linecap="round" stroke-miterlimit="10" d="M213.2182,234.1995
			c-2.6484-30.5628,19.9807-57.4857,50.5435-60.1341"/>
		<path fill="none" stroke="#CA3353" stroke-width="1.997" stroke-linecap="round" stroke-miterlimit="10" d="M267.7466,332.2377
			c19.7384-23.4838,16.7022-58.5224-6.7816-78.2608l-0.2092,0c-23.4838-19.7384-26.52-54.777-6.7816-78.2608"/>
	</g>
	<g>
		<path fill="none" stroke="#CA3353" stroke-width="1.997" stroke-linecap="round" stroke-miterlimit="10" d="M482.5571,139.0631
			c30.5628-2.6484,57.4857,19.9807,60.1341,50.5435"/>
		<path fill="none" stroke="#CA3353" stroke-width="1.997" stroke-linecap="round" stroke-miterlimit="10" d="M530.1559,119.4337
			c23.4838,19.7385,26.52,54.777,6.7816,78.2608"/>
		<path fill="none" stroke="#CA3353" stroke-width="1.997" stroke-linecap="round" stroke-miterlimit="10" d="M577.6935,139.2111
			c2.6484,30.5628-19.9807,57.4857-50.5435,60.1341"/>
		<path fill="none" stroke="#CA3353" stroke-width="1.997" stroke-linecap="round" stroke-miterlimit="10" d="M597.3229,186.8099
			c-19.7385,23.4838-54.777,26.52-78.2608,6.7816"/>
		<path fill="none" stroke="#CA3353" stroke-width="1.997" stroke-linecap="round" stroke-miterlimit="10" d="M577.5456,234.3475
			c-30.5627,2.6484-57.4857-19.9807-60.1341-50.5435"/>
		<path fill="none" stroke="#CA3353" stroke-width="1.997" stroke-linecap="round" stroke-miterlimit="10" d="M482.4092,234.1995
			c-2.6484-30.5628,19.9807-57.4857,50.5435-60.1341"/>
	</g>
	<g>
		<path fill="none" stroke="#CA3353" stroke-width="1.997" stroke-linecap="round" stroke-miterlimit="10" d="M193.5888,321.1439
			c19.7384-23.4838,54.777-26.5201,78.2608-6.7816"/>
		<path fill="none" stroke="#CA3353" stroke-width="1.997" stroke-linecap="round" stroke-miterlimit="10" d="M213.3661,273.6063
			c30.5628-2.6484,57.4857,19.9807,60.1341,50.5435"/>
		<path fill="none" stroke="#CA3353" stroke-width="1.997" stroke-linecap="round" stroke-miterlimit="10" d="M308.5025,273.7542
			c2.6484,30.5627-19.9807,57.4857-50.5435,60.1341"/>
		<path fill="none" stroke="#CA3353" stroke-width="1.997" stroke-linecap="round" stroke-miterlimit="10" d="M308.3546,368.8906
			c-30.5627,2.6484-57.4857-19.9807-60.134-50.5435"/>
		<path fill="none" stroke="#CA3353" stroke-width="1.997" stroke-linecap="round" stroke-miterlimit="10" d="M260.7558,388.5201
			c-23.4838-19.7385-26.52-54.777-6.7816-78.2608"/>
		<path fill="none" stroke="#CA3353" stroke-width="1.997" stroke-linecap="round" stroke-miterlimit="10" d="M213.2182,368.7427
			c-2.6484-30.5627,19.9807-57.4857,50.5435-60.1341"/>
	</g>
</g>
<g>
	<path fill="none" stroke="#CA3353" stroke-width="1.997" stroke-linecap="round" stroke-miterlimit="10" d="M549.9333,206.387
		c30.5627-2.6484,57.4857,19.9807,60.1341,50.5435"/>
	<path fill="none" stroke="#CA3353" stroke-width="1.997" stroke-linecap="round" stroke-miterlimit="10" d="M645.0697,206.535
		c2.6484,30.5627-19.9807,57.4857-50.5435,60.134"/>
	<path fill="none" stroke="#CA3353" stroke-width="1.997" stroke-linecap="round" stroke-miterlimit="10" d="M664.6991,254.1338
		c-19.7384,23.4838-54.777,26.52-78.2608,6.7816"/>
	<path fill="none" stroke="#CA3353" stroke-width="1.997" stroke-linecap="round" stroke-miterlimit="10" d="M644.9218,301.6714
		c-30.5627,2.6483-57.4857-19.9807-60.134-50.5435"/>
	<path fill="none" stroke="#CA3353" stroke-width="1.997" stroke-linecap="round" stroke-miterlimit="10" d="M549.7854,301.5234
		c-2.6484-30.5627,19.9807-57.4857,50.5435-60.134"/>
	<path fill="none" stroke="#CA3353" stroke-width="1.997" stroke-linecap="round" stroke-miterlimit="10" d="M590.5413,108.4445
		c-19.7384,23.4838-16.7022,58.5224,6.7816,78.2608l0.2092,0.0523c23.4838,19.7384,26.5201,54.777,6.7816,78.2608"/>
	<path fill="none" stroke="#CA3353" stroke-width="1.997" stroke-linecap="round" stroke-miterlimit="10" d="M604.3137,399.5616
		c19.7385-23.4838,16.7022-58.5224-6.7816-78.2608h-0.2092c-23.4838-19.7385-26.52-54.777-6.7816-78.2608"/>
</g>
<g>
	<path fill="none" stroke="#CA3353" stroke-width="1.997" stroke-linecap="round" stroke-miterlimit="10" d="M126.3695,253.9246
		c19.7384-23.4838,54.777-26.52,78.2608-6.7816"/>
	<path fill="none" stroke="#CA3353" stroke-width="1.997" stroke-linecap="round" stroke-miterlimit="10" d="M146.1469,206.387
		c30.5627-2.6484,57.4857,19.9807,60.1341,50.5435"/>
	<path fill="none" stroke="#CA3353" stroke-width="1.997" stroke-linecap="round" stroke-miterlimit="10" d="M241.2832,206.535
		c2.6484,30.5627-19.9807,57.4857-50.5435,60.134"/>
	<path fill="none" stroke="#CA3353" stroke-width="1.997" stroke-linecap="round" stroke-miterlimit="10" d="M241.1353,301.6714
		c-30.5628,2.6483-57.4857-19.9807-60.1341-50.5435"/>
	<path fill="none" stroke="#CA3353" stroke-width="1.997" stroke-linecap="round" stroke-miterlimit="10" d="M145.9989,301.5234
		c-2.6484-30.5627,19.9807-57.4857,50.5435-60.134"/>
	<path fill="none" stroke="#CA3353" stroke-width="1.997" stroke-linecap="round" stroke-miterlimit="10" d="M186.7549,108.4445
		c-19.7384,23.4838-16.7022,58.5224,6.7816,78.2608l0.2092,0.0523c23.4838,19.7384,26.52,54.777,6.7816,78.2608"/>
	<path fill="none" stroke="#CA3353" stroke-width="1.997" stroke-linecap="round" stroke-miterlimit="10" d="M200.5273,399.5616
		c19.7384-23.4838,16.7022-58.5224-6.7816-78.2608h-0.2092c-23.4838-19.7385-26.52-54.777-6.7816-78.2608"/>
</g>
<g>
	<path fill="none" stroke="#CA3353" stroke-width="1.997" stroke-linecap="round" stroke-miterlimit="10" d="M339.2258,112.5475
		c-23.4838-19.7384-58.5224-16.7022-78.2608,6.7816l-0.0523,0.2092c-19.7384,23.4838-54.777,26.52-78.2608,6.7816"/>
	<path fill="none" stroke="#CA3353" stroke-width="1.997" stroke-linecap="round" stroke-miterlimit="10" d="M280.7423,71.7916
		c30.5627-2.6484,57.4857,19.9807,60.1341,50.5435"/>
	<path fill="none" stroke="#CA3353" stroke-width="1.997" stroke-linecap="round" stroke-miterlimit="10" d="M328.3412,52.1621
		c23.4838,19.7384,26.52,54.777,6.7816,78.2608"/>
	<path fill="none" stroke="#CA3353" stroke-width="1.997" stroke-linecap="round" stroke-miterlimit="10" d="M375.8787,71.9395
		c2.6484,30.5628-19.9807,57.4857-50.5435,60.1341"/>
	<path fill="none" stroke="#CA3353" stroke-width="1.997" stroke-linecap="round" stroke-miterlimit="10" d="M375.7308,167.0759
		c-30.5627,2.6484-57.4857-19.9807-60.1341-50.5434"/>
	<path fill="none" stroke="#CA3353" stroke-width="1.997" stroke-linecap="round" stroke-miterlimit="10" d="M280.5944,166.9279
		c-2.6484-30.5628,19.9807-57.4857,50.5435-60.1341"/>
	<path fill="none" stroke="#CA3353" stroke-width="1.997" stroke-linecap="round" stroke-miterlimit="10" d="M473.8213,112.5475
		c-23.4838-19.7384-58.5224-16.7022-78.2608,6.7816l-0.0523,0.2092c-19.7384,23.4838-54.777,26.52-78.2608,6.7816"/>
</g>
<g>
	<path fill="none" stroke="#CA3353" stroke-width="1.997" stroke-linecap="round" stroke-miterlimit="10" d="M415.3378,71.7916
		c30.5627-2.6484,57.4857,19.9807,60.1341,50.5435"/>
	<path fill="none" stroke="#CA3353" stroke-width="1.997" stroke-linecap="round" stroke-miterlimit="10" d="M462.9366,52.1621
		c23.4838,19.7384,26.5201,54.777,6.7816,78.2608"/>
	<path fill="none" stroke="#CA3353" stroke-width="1.997" stroke-linecap="round" stroke-miterlimit="10" d="M510.4742,71.9395
		c2.6483,30.5628-19.9807,57.4857-50.5435,60.1341"/>
	<path fill="none" stroke="#CA3353" stroke-width="1.997" stroke-linecap="round" stroke-miterlimit="10" d="M510.3263,167.0759
		c-30.5628,2.6484-57.4857-19.9807-60.1341-50.5434"/>
	<path fill="none" stroke="#CA3353" stroke-width="1.997" stroke-linecap="round" stroke-miterlimit="10" d="M415.1899,166.9279
		c-2.6483-30.5628,19.9807-57.4857,50.5435-60.1341"/>
	<path fill="none" stroke="#CA3353" stroke-width="1.997" stroke-linecap="round" stroke-miterlimit="10" d="M608.4167,112.5475
		c-23.4838-19.7384-58.5223-16.7022-78.2608,6.7816l-0.0523,0.2092c-19.7384,23.4838-54.777,26.52-78.2608,6.7816"/>
</g>
<g>
	<path fill="none" stroke="#CA3353" stroke-width="1.997" stroke-linecap="round" stroke-miterlimit="10" d="M473.8213,381.6862
		c-23.4838-19.7385-58.5224-16.7022-78.2608,6.7816l-0.0523,0.2092c-19.7384,23.4838-54.777,26.52-78.2608,6.7816"/>
	<path fill="none" stroke="#CA3353" stroke-width="1.997" stroke-linecap="round" stroke-miterlimit="10" d="M510.4742,341.0781
		c2.6483,30.5628-19.9807,57.4857-50.5435,60.1341"/>
	<path fill="none" stroke="#CA3353" stroke-width="1.997" stroke-linecap="round" stroke-miterlimit="10" d="M510.3263,436.2145
		c-30.5628,2.6483-57.4857-19.9807-60.1341-50.5435"/>
	<path fill="none" stroke="#CA3353" stroke-width="1.997" stroke-linecap="round" stroke-miterlimit="10" d="M462.7274,455.844
		c-23.4838-19.7385-26.52-54.777-6.7816-78.2608"/>
	<path fill="none" stroke="#CA3353" stroke-width="1.997" stroke-linecap="round" stroke-miterlimit="10" d="M415.1899,436.0666
		c-2.6483-30.5627,19.9807-57.4857,50.5435-60.1341"/>
	<path fill="none" stroke="#CA3353" stroke-width="1.997" stroke-linecap="round" stroke-miterlimit="10" d="M415.3378,340.9302
		c30.5627-2.6484,57.4857,19.9807,60.1341,50.5435"/>
	<path fill="none" stroke="#CA3353" stroke-width="1.997" stroke-linecap="round" stroke-miterlimit="10" d="M608.4167,381.6862
		c-23.4838-19.7385-58.5223-16.7022-78.2608,6.7816l-0.0523,0.2092c-19.7384,23.4838-54.777,26.52-78.2608,6.7816"/>
</g>
<g>
	<path fill="none" stroke="#CA3353" stroke-width="1.997" stroke-linecap="round" stroke-miterlimit="10" d="M339.2258,381.6862
		c-23.4838-19.7385-58.5224-16.7022-78.2608,6.7816l-0.0523,0.2092c-19.7384,23.4838-54.777,26.52-78.2608,6.7816"/>
	<path fill="none" stroke="#CA3353" stroke-width="1.997" stroke-linecap="round" stroke-miterlimit="10" d="M280.7423,340.9302
		c30.5627-2.6484,57.4857,19.9807,60.1341,50.5435"/>
	<path fill="none" stroke="#CA3353" stroke-width="1.997" stroke-linecap="round" stroke-miterlimit="10" d="M375.8787,341.0781
		c2.6484,30.5628-19.9807,57.4857-50.5435,60.1341"/>
	<path fill="none" stroke="#CA3353" stroke-width="1.997" stroke-linecap="round" stroke-miterlimit="10" d="M375.7308,436.2145
		c-30.5627,2.6483-57.4857-19.9807-60.1341-50.5435"/>
	<path fill="none" stroke="#CA3353" stroke-width="1.997" stroke-linecap="round" stroke-miterlimit="10" d="M328.132,455.844
		c-23.4838-19.7385-26.5201-54.777-6.7816-78.2608"/>
	<path fill="none" stroke="#CA3353" stroke-width="1.997" stroke-linecap="round" stroke-miterlimit="10" d="M280.5944,436.0666
		c-2.6484-30.5627,19.9807-57.4857,50.5435-60.1341"/>
</g>
<g>
	<path fill="none" stroke="#CA3353" stroke-width="1.997" stroke-linecap="round" stroke-miterlimit="10" d="M241.1353,167.0759
		c-30.5628,2.6484-57.4857-19.9807-60.1341-50.5434"/>
	<path fill="none" stroke="#CA3353" stroke-width="1.997" stroke-linecap="round" stroke-miterlimit="10" d="M241.2832,341.0781
		c2.6484,30.5628-19.9807,57.4857-50.5435,60.1341"/>
	<path fill="none" stroke="#CA3353" stroke-width="1.997" stroke-linecap="round" stroke-miterlimit="10" d="M549.7854,166.9279
		c-2.6484-30.5628,19.9807-57.4857,50.5435-60.1341"/>
	<path fill="none" stroke="#CA3353" stroke-width="1.997" stroke-linecap="round" stroke-miterlimit="10" d="M549.9333,340.9302
		c30.5627-2.6484,57.4857,19.9807,60.1341,50.5435"/>
</g>
<g>
	<path fill="none" stroke="#CA3353" stroke-width="1.997" stroke-linecap="round" stroke-miterlimit="10" d="M406.4451,179.8191
		c-23.4838-19.7384-58.5224-16.7022-78.2608,6.7816l-0.0523,0.2092c-19.7385,23.4838-54.777,26.52-78.2608,6.7816"/>
	<path fill="none" stroke="#CA3353" stroke-width="1.997" stroke-linecap="round" stroke-miterlimit="10" d="M347.9616,139.0631
		c30.5627-2.6484,57.4857,19.9807,60.1341,50.5435"/>
	<path fill="none" stroke="#CA3353" stroke-width="1.997" stroke-linecap="round" stroke-miterlimit="10" d="M395.5605,119.4337
		c23.4838,19.7385,26.5201,54.777,6.7816,78.2608"/>
	<path fill="none" stroke="#CA3353" stroke-width="1.997" stroke-linecap="round" stroke-miterlimit="10" d="M443.098,139.2111
		c2.6484,30.5628-19.9807,57.4857-50.5435,60.1341"/>
	<path fill="none" stroke="#CA3353" stroke-width="1.997" stroke-linecap="round" stroke-miterlimit="10" d="M442.9501,234.3475
		c-30.5627,2.6484-57.4857-19.9807-60.1341-50.5435"/>
	<path fill="none" stroke="#CA3353" stroke-width="1.997" stroke-linecap="round" stroke-miterlimit="10" d="M347.8137,234.1995
		c-2.6484-30.5628,19.9807-57.4857,50.5435-60.1341"/>
	<path fill="none" stroke="#CA3353" stroke-width="1.997" stroke-linecap="round" stroke-miterlimit="10" d="M402.342,332.2377
		c19.7385-23.4838,16.7022-58.5224-6.7816-78.2608l-0.2092,0c-23.4838-19.7384-26.52-54.777-6.7816-78.2608"/>
	<path fill="none" stroke="#CA3353" stroke-width="1.997" stroke-linecap="round" stroke-miterlimit="10" d="M541.0406,179.8191
		c-23.4838-19.7384-58.5224-16.7022-78.2608,6.7816l-0.0523,0.2092c-19.7384,23.4838-54.777,26.52-78.2608,6.7816"/>
</g>
<g>
	<path fill="none" stroke="#CA3353" stroke-width="1.997" stroke-linecap="round" stroke-miterlimit="10" d="M339.2258,247.143
		c-23.4838-19.7384-58.5224-16.7022-78.2608,6.7816l-0.0523,0.2092c-19.7384,23.4838-54.777,26.52-78.2608,6.7816"/>
	<path fill="none" stroke="#CA3353" stroke-width="1.997" stroke-linecap="round" stroke-miterlimit="10" d="M280.7423,206.387
		c30.5627-2.6484,57.4857,19.9807,60.1341,50.5435"/>
	<path fill="none" stroke="#CA3353" stroke-width="1.997" stroke-linecap="round" stroke-miterlimit="10" d="M375.8787,206.535
		c2.6484,30.5627-19.9807,57.4857-50.5435,60.134"/>
	<path fill="none" stroke="#CA3353" stroke-width="1.997" stroke-linecap="round" stroke-miterlimit="10" d="M375.7308,301.6714
		c-30.5627,2.6483-57.4857-19.9807-60.1341-50.5435"/>
	<path fill="none" stroke="#CA3353" stroke-width="1.997" stroke-linecap="round" stroke-miterlimit="10" d="M280.5944,301.5234
		c-2.6484-30.5627,19.9807-57.4857,50.5435-60.134"/>
	<path fill="none" stroke="#CA3353" stroke-width="1.997" stroke-linecap="round" stroke-miterlimit="10" d="M321.3504,108.4445
		c-19.7385,23.4838-16.7022,58.5224,6.7816,78.2608l0.2092,0.0523c23.4838,19.7384,26.52,54.777,6.7816,78.2608"/>
	<path fill="none" stroke="#CA3353" stroke-width="1.997" stroke-linecap="round" stroke-miterlimit="10" d="M473.8213,247.143
		c-23.4838-19.7384-58.5224-16.7022-78.2608,6.7816l-0.0523,0.2092c-19.7384,23.4838-54.777,26.52-78.2608,6.7816"/>
	<path fill="none" stroke="#CA3353" stroke-width="1.997" stroke-linecap="round" stroke-miterlimit="10" d="M335.1227,399.5616
		c19.7385-23.4838,16.7022-58.5224-6.7816-78.2608h-0.2092c-23.4838-19.7385-26.5201-54.777-6.7816-78.2608"/>
</g>
<g>
	<path fill="none" stroke="#CA3353" stroke-width="1.997" stroke-linecap="round" stroke-miterlimit="10" d="M415.3378,206.387
		c30.5627-2.6484,57.4857,19.9807,60.1341,50.5435"/>
	<path fill="none" stroke="#CA3353" stroke-width="1.997" stroke-linecap="round" stroke-miterlimit="10" d="M510.4742,206.535
		c2.6483,30.5627-19.9807,57.4857-50.5435,60.134"/>
	<path fill="none" stroke="#CA3353" stroke-width="1.997" stroke-linecap="round" stroke-miterlimit="10" d="M510.3263,301.6714
		c-30.5628,2.6483-57.4857-19.9807-60.1341-50.5435"/>
	<path fill="none" stroke="#CA3353" stroke-width="1.997" stroke-linecap="round" stroke-miterlimit="10" d="M415.1899,301.5234
		c-2.6483-30.5627,19.9807-57.4857,50.5435-60.134"/>
	<path fill="none" stroke="#CA3353" stroke-width="1.997" stroke-linecap="round" stroke-miterlimit="10" d="M455.9459,108.4445
		c-19.7384,23.4838-16.7022,58.5224,6.7816,78.2608l0.2092,0.0523c23.4838,19.7384,26.5201,54.777,6.7816,78.2608"/>
	<path fill="none" stroke="#CA3353" stroke-width="1.997" stroke-linecap="round" stroke-miterlimit="10" d="M469.7182,399.5616
		c19.7385-23.4838,16.7022-58.5224-6.7816-78.2608h-0.2092c-23.4838-19.7385-26.52-54.777-6.7816-78.2608"/>
	<path fill="none" stroke="#CA3353" stroke-width="1.997" stroke-linecap="round" stroke-miterlimit="10" d="M608.4167,247.143
		c-23.4838-19.7384-58.5223-16.7022-78.2608,6.7816l-0.0523,0.2092c-19.7384,23.4838-54.777,26.52-78.2608,6.7816"/>
</g>
<g>
	<path fill="none" stroke="#CA3353" stroke-width="1.997" stroke-linecap="round" stroke-miterlimit="10" d="M406.4451,314.3623
		c-23.4838-19.7385-58.5224-16.7022-78.2608,6.7816l-0.0523,0.2092c-19.7385,23.4838-54.777,26.52-78.2608,6.7816"/>
	<path fill="none" stroke="#CA3353" stroke-width="1.997" stroke-linecap="round" stroke-miterlimit="10" d="M347.9616,273.6063
		c30.5627-2.6484,57.4857,19.9807,60.1341,50.5435"/>
	<path fill="none" stroke="#CA3353" stroke-width="1.997" stroke-linecap="round" stroke-miterlimit="10" d="M443.098,273.7542
		c2.6484,30.5627-19.9807,57.4857-50.5435,60.1341"/>
	<path fill="none" stroke="#CA3353" stroke-width="1.997" stroke-linecap="round" stroke-miterlimit="10" d="M442.9501,368.8906
		c-30.5627,2.6484-57.4857-19.9807-60.1341-50.5435"/>
	<path fill="none" stroke="#CA3353" stroke-width="1.997" stroke-linecap="round" stroke-miterlimit="10" d="M347.8137,368.7427
		c-2.6484-30.5627,19.9807-57.4857,50.5435-60.1341"/>
	<path fill="none" stroke="#CA3353" stroke-width="1.997" stroke-linecap="round" stroke-miterlimit="10" d="M395.3513,388.5201
		c-23.4838-19.7385-26.52-54.777-6.7816-78.2608"/>
</g>
</svg>
