<?xml version="1.0" encoding="utf-8"?>
<!-- Generator: Adobe Illustrator 18.1.1, SVG Export Plug-In . SVG Version: 6.00 Build 0)  -->
<svg version="1.1" id="Layer_1" xmlns="http://www.w3.org/2000/svg" xmlns:xlink="http://www.w3.org/1999/xlink" x="0px" y="0px"
	 viewBox="0 0 489.9197 213.7151" enable-background="new 0 0 489.9197 213.7151" xml:space="preserve">
<line fill="none" stroke="#CE3E67" stroke-miterlimit="10" x1="33.9599" y1="19.3575" x2="35.9599" y2="19.3575"/>
<line fill="none" stroke="#CE3E67" stroke-miterlimit="10" x1="33.9599" y1="41.3575" x2="35.9599" y2="41.3575"/>
<line fill="none" stroke="#CE3E67" stroke-miterlimit="10" x1="33.9599" y1="63.3575" x2="35.9599" y2="63.3575"/>
<line fill="none" stroke="#CE3E67" stroke-miterlimit="10" x1="33.9599" y1="85.3575" x2="35.9599" y2="85.3575"/>
<line fill="none" stroke="#CE3E67" stroke-miterlimit="10" x1="33.9599" y1="107.3575" x2="35.9599" y2="107.3575"/>
<line fill="none" stroke="#CE3E67" stroke-miterlimit="10" x1="33.9599" y1="129.3575" x2="35.9599" y2="129.3575"/>
<line fill="none" stroke="#CE3E67" stroke-miterlimit="10" x1="33.9599" y1="150.3575" x2="35.9599" y2="150.3575"/>
<line fill="none" stroke="#CE3E67" stroke-miterlimit="10" x1="33.9599" y1="172.3575" x2="35.9599" y2="172.3575"/>
<line fill="none" stroke="#CE3E67" stroke-miterlimit="10" x1="33.9599" y1="194.3575" x2="35.9599" y2="194.3575"/>
<line fill="none" stroke="#CE3E67" stroke-miterlimit="10" x1="61.9599" y1="19.3575" x2="63.9599" y2="19.3575"/>
<line fill="none" stroke="#CE3E67" stroke-miterlimit="10" x1="61.9599" y1="41.3575" x2="63.9599" y2="41.3575"/>
<line fill="none" stroke="#CE3E67" stroke-miterlimit="10" x1="61.9599" y1="63.3575" x2="63.9599" y2="63.3575"/>
<line fill="none" stroke="#CE3E67" stroke-miterlimit="10" x1="61.9599" y1="85.3575" x2="63.9599" y2="85.3575"/>
<line fill="none" stroke="#CE3E67" stroke-miterlimit="10" x1="61.9599" y1="107.3575" x2="63.9599" y2="107.3575"/>
<line fill="none" stroke="#CE3E67" stroke-miterlimit="10" x1="61.9599" y1="129.3575" x2="63.9599" y2="129.3575"/>
<line fill="none" stroke="#CE3E67" stroke-miterlimit="10" x1="61.9599" y1="150.3575" x2="63.9599" y2="150.3575"/>
<line fill="none" stroke="#CE3E67" stroke-miterlimit="10" x1="61.9599" y1="172.3575" x2="63.9599" y2="172.3575"/>
<line fill="none" stroke="#CE3E67" stroke-miterlimit="10" x1="61.9599" y1="194.3575" x2="63.9599" y2="194.3575"/>
<line fill="none" stroke="#CE3E67" stroke-miterlimit="10" x1="89.9599" y1="19.3575" x2="91.9599" y2="19.3575"/>
<line fill="none" stroke="#CE3E67" stroke-miterlimit="10" x1="89.9599" y1="41.3575" x2="91.9599" y2="41.3575"/>
<line fill="none" stroke="#CE3E67" stroke-miterlimit="10" x1="89.9599" y1="63.3575" x2="91.9599" y2="63.3575"/>
<line fill="none" stroke="#CE3E67" stroke-miterlimit="10" x1="89.9599" y1="85.3575" x2="91.9599" y2="85.3575"/>
<line fill="none" stroke="#CE3E67" stroke-miterlimit="10" x1="89.9599" y1="107.3575" x2="91.9599" y2="107.3575"/>
<line fill="none" stroke="#CE3E67" stroke-miterlimit="10" x1="89.9599" y1="129.3575" x2="91.9599" y2="129.3575"/>
<line fill="none" stroke="#CE3E67" stroke-miterlimit="10" x1="89.9599" y1="150.3575" x2="91.9599" y2="150.3575"/>
<line fill="none" stroke="#CE3E67" stroke-miterlimit="10" x1="89.9599" y1="172.3575" x2="91.9599" y2="172.3575"/>
<line fill="none" stroke="#CE3E67" stroke-miterlimit="10" x1="89.9599" y1="194.3575" x2="91.9599" y2="194.3575"/>
<line fill="none" stroke="#CE3E67" stroke-miterlimit="10" x1="117.9599" y1="19.3575" x2="119.9599" y2="19.3575"/>
<line fill="none" stroke="#CE3E67" stroke-miterlimit="10" x1="117.9599" y1="41.3575" x2="119.9599" y2="41.3575"/>
<line fill="none" stroke="#CE3E67" stroke-miterlimit="10" x1="117.9599" y1="63.3575" x2="119.9599" y2="63.3575"/>
<line fill="none" stroke="#CE3E67" stroke-miterlimit="10" x1="117.9599" y1="85.3575" x2="119.9599" y2="85.3575"/>
<line fill="none" stroke="#CE3E67" stroke-miterlimit="10" x1="117.9599" y1="107.3575" x2="119.9599" y2="107.3575"/>
<line fill="none" stroke="#CE3E67" stroke-miterlimit="10" x1="117.9599" y1="129.3575" x2="119.9599" y2="129.3575"/>
<line fill="none" stroke="#CE3E67" stroke-miterlimit="10" x1="117.9599" y1="150.3575" x2="119.9599" y2="150.3575"/>
<line fill="none" stroke="#CE3E67" stroke-miterlimit="10" x1="117.9599" y1="172.3575" x2="119.9599" y2="172.3575"/>
<line fill="none" stroke="#CE3E67" stroke-miterlimit="10" x1="117.9599" y1="194.3575" x2="119.9599" y2="194.3575"/>
<line fill="none" stroke="#CE3E67" stroke-miterlimit="10" x1="145.9599" y1="19.3575" x2="147.9599" y2="19.3575"/>
<line fill="none" stroke="#CE3E67" stroke-miterlimit="10" x1="145.9599" y1="41.3575" x2="147.9599" y2="41.3575"/>
<line fill="none" stroke="#CE3E67" stroke-miterlimit="10" x1="145.9599" y1="63.3575" x2="147.9599" y2="63.3575"/>
<line fill="none" stroke="#CE3E67" stroke-miterlimit="10" x1="145.9599" y1="85.3575" x2="147.9599" y2="85.3575"/>
<line fill="none" stroke="#CE3E67" stroke-miterlimit="10" x1="145.9599" y1="107.3575" x2="147.9599" y2="107.3575"/>
<line fill="none" stroke="#CE3E67" stroke-miterlimit="10" x1="145.9599" y1="129.3575" x2="147.9599" y2="129.3575"/>
<line fill="none" stroke="#CE3E67" stroke-miterlimit="10" x1="145.9599" y1="150.3575" x2="147.9599" y2="150.3575"/>
<line fill="none" stroke="#CE3E67" stroke-miterlimit="10" x1="145.9599" y1="172.3575" x2="147.9599" y2="172.3575"/>
<line fill="none" stroke="#CE3E67" stroke-miterlimit="10" x1="145.9599" y1="194.3575" x2="147.9599" y2="194.3575"/>
<line fill="none" stroke="#CE3E67" stroke-miterlimit="10" x1="173.9599" y1="19.3575" x2="175.9599" y2="19.3575"/>
<line fill="none" stroke="#CE3E67" stroke-miterlimit="10" x1="173.9599" y1="41.3575" x2="175.9599" y2="41.3575"/>
<line fill="none" stroke="#CE3E67" stroke-miterlimit="10" x1="173.9599" y1="63.3575" x2="175.9599" y2="63.3575"/>
<line fill="none" stroke="#CE3E67" stroke-miterlimit="10" x1="173.9599" y1="85.3575" x2="175.9599" y2="85.3575"/>
<line fill="none" stroke="#CE3E67" stroke-miterlimit="10" x1="173.9599" y1="107.3575" x2="175.9599" y2="107.3575"/>
<line fill="none" stroke="#CE3E67" stroke-miterlimit="10" x1="173.9599" y1="129.3575" x2="175.9599" y2="129.3575"/>
<line fill="none" stroke="#CE3E67" stroke-miterlimit="10" x1="173.9599" y1="150.3575" x2="175.9599" y2="150.3575"/>
<line fill="none" stroke="#CE3E67" stroke-miterlimit="10" x1="173.9599" y1="172.3575" x2="175.9599" y2="172.3575"/>
<line fill="none" stroke="#CE3E67" stroke-miterlimit="10" x1="173.9599" y1="194.3575" x2="175.9599" y2="194.3575"/>
<line fill="none" stroke="#CE3E67" stroke-miterlimit="10" x1="201.9599" y1="19.3575" x2="203.9599" y2="19.3575"/>
<line fill="none" stroke="#CE3E67" stroke-miterlimit="10" x1="201.9599" y1="41.3575" x2="203.9599" y2="41.3575"/>
<line fill="none" stroke="#CE3E67" stroke-miterlimit="10" x1="201.9599" y1="63.3575" x2="203.9599" y2="63.3575"/>
<line fill="none" stroke="#CE3E67" stroke-miterlimit="10" x1="201.9599" y1="85.3575" x2="203.9599" y2="85.3575"/>
<line fill="none" stroke="#CE3E67" stroke-miterlimit="10" x1="201.9599" y1="107.3575" x2="203.9599" y2="107.3575"/>
<line fill="none" stroke="#CE3E67" stroke-miterlimit="10" x1="201.9599" y1="129.3575" x2="203.9599" y2="129.3575"/>
<line fill="none" stroke="#CE3E67" stroke-miterlimit="10" x1="201.9599" y1="150.3575" x2="203.9599" y2="150.3575"/>
<line fill="none" stroke="#CE3E67" stroke-miterlimit="10" x1="201.9599" y1="172.3575" x2="203.9599" y2="172.3575"/>
<line fill="none" stroke="#CE3E67" stroke-miterlimit="10" x1="201.9599" y1="194.3575" x2="203.9599" y2="194.3575"/>
<line fill="none" stroke="#CE3E67" stroke-miterlimit="10" x1="229.9599" y1="19.3575" x2="231.9599" y2="19.3575"/>
<line fill="none" stroke="#CE3E67" stroke-miterlimit="10" x1="229.9599" y1="41.3575" x2="231.9599" y2="41.3575"/>
<line fill="none" stroke="#CE3E67" stroke-miterlimit="10" x1="229.9599" y1="63.3575" x2="231.9599" y2="63.3575"/>
<line fill="none" stroke="#CE3E67" stroke-miterlimit="10" x1="229.9599" y1="85.3575" x2="231.9599" y2="85.3575"/>
<line fill="none" stroke="#CE3E67" stroke-miterlimit="10" x1="229.9599" y1="107.3575" x2="231.9599" y2="107.3575"/>
<line fill="none" stroke="#CE3E67" stroke-miterlimit="10" x1="229.9599" y1="129.3575" x2="231.9599" y2="129.3575"/>
<line fill="none" stroke="#CE3E67" stroke-miterlimit="10" x1="229.9599" y1="150.3575" x2="231.9599" y2="150.3575"/>
<line fill="none" stroke="#CE3E67" stroke-miterlimit="10" x1="229.9599" y1="172.3575" x2="231.9599" y2="172.3575"/>
<line fill="none" stroke="#CE3E67" stroke-miterlimit="10" x1="229.9599" y1="194.3575" x2="231.9599" y2="194.3575"/>
<line fill="none" stroke="#CE3E67" stroke-miterlimit="10" x1="257.9598" y1="19.3575" x2="259.9598" y2="19.3575"/>
<line fill="none" stroke="#CE3E67" stroke-miterlimit="10" x1="257.9598" y1="41.3575" x2="259.9598" y2="41.3575"/>
<line fill="none" stroke="#CE3E67" stroke-miterlimit="10" x1="257.9598" y1="63.3575" x2="259.9598" y2="63.3575"/>
<line fill="none" stroke="#CE3E67" stroke-miterlimit="10" x1="257.9598" y1="85.3575" x2="259.9598" y2="85.3575"/>
<line fill="none" stroke="#CE3E67" stroke-miterlimit="10" x1="257.9598" y1="107.3575" x2="259.9598" y2="107.3575"/>
<line fill="none" stroke="#CE3E67" stroke-miterlimit="10" x1="257.9598" y1="129.3575" x2="259.9598" y2="129.3575"/>
<line fill="none" stroke="#CE3E67" stroke-miterlimit="10" x1="257.9598" y1="150.3575" x2="259.9598" y2="150.3575"/>
<line fill="none" stroke="#CE3E67" stroke-miterlimit="10" x1="257.9598" y1="172.3575" x2="259.9598" y2="172.3575"/>
<line fill="none" stroke="#CE3E67" stroke-miterlimit="10" x1="257.9598" y1="194.3575" x2="259.9598" y2="194.3575"/>
<line fill="none" stroke="#CE3E67" stroke-miterlimit="10" x1="285.9598" y1="19.3575" x2="287.9598" y2="19.3575"/>
<line fill="none" stroke="#CE3E67" stroke-miterlimit="10" x1="285.9598" y1="41.3575" x2="287.9598" y2="41.3575"/>
<line fill="none" stroke="#CE3E67" stroke-miterlimit="10" x1="285.9598" y1="63.3575" x2="287.9598" y2="63.3575"/>
<line fill="none" stroke="#CE3E67" stroke-miterlimit="10" x1="285.9598" y1="85.3575" x2="287.9598" y2="85.3575"/>
<line fill="none" stroke="#CE3E67" stroke-miterlimit="10" x1="285.9598" y1="107.3575" x2="287.9598" y2="107.3575"/>
<line fill="none" stroke="#CE3E67" stroke-miterlimit="10" x1="285.9598" y1="129.3575" x2="287.9598" y2="129.3575"/>
<line fill="none" stroke="#CE3E67" stroke-miterlimit="10" x1="285.9598" y1="150.3575" x2="287.9598" y2="150.3575"/>
<line fill="none" stroke="#CE3E67" stroke-miterlimit="10" x1="285.9598" y1="172.3575" x2="287.9598" y2="172.3575"/>
<line fill="none" stroke="#CE3E67" stroke-miterlimit="10" x1="285.9598" y1="194.3575" x2="287.9598" y2="194.3575"/>
<line fill="none" stroke="#CE3E67" stroke-miterlimit="10" x1="313.9598" y1="19.3575" x2="315.9598" y2="19.3575"/>
<line fill="none" stroke="#CE3E67" stroke-miterlimit="10" x1="313.9598" y1="41.3575" x2="315.9598" y2="41.3575"/>
<line fill="none" stroke="#CE3E67" stroke-miterlimit="10" x1="313.9598" y1="63.3575" x2="315.9598" y2="63.3575"/>
<line fill="none" stroke="#CE3E67" stroke-miterlimit="10" x1="313.9598" y1="85.3575" x2="315.9598" y2="85.3575"/>
<line fill="none" stroke="#CE3E67" stroke-miterlimit="10" x1="313.9598" y1="107.3575" x2="315.9598" y2="107.3575"/>
<line fill="none" stroke="#CE3E67" stroke-miterlimit="10" x1="313.9598" y1="129.3575" x2="315.9598" y2="129.3575"/>
<line fill="none" stroke="#CE3E67" stroke-miterlimit="10" x1="313.9598" y1="150.3575" x2="315.9598" y2="150.3575"/>
<line fill="none" stroke="#CE3E67" stroke-miterlimit="10" x1="313.9598" y1="172.3575" x2="315.9598" y2="172.3575"/>
<line fill="none" stroke="#CE3E67" stroke-miterlimit="10" x1="313.9598" y1="194.3575" x2="315.9598" y2="194.3575"/>
<line fill="none" stroke="#CE3E67" stroke-miterlimit="10" x1="341.9598" y1="19.3575" x2="343.9598" y2="19.3575"/>
<line fill="none" stroke="#CE3E67" stroke-miterlimit="10" x1="341.9598" y1="41.3575" x2="343.9598" y2="41.3575"/>
<line fill="none" stroke="#CE3E67" stroke-miterlimit="10" x1="341.9598" y1="63.3575" x2="343.9598" y2="63.3575"/>
<line fill="none" stroke="#CE3E67" stroke-miterlimit="10" x1="341.9598" y1="85.3575" x2="343.9598" y2="85.3575"/>
<line fill="none" stroke="#CE3E67" stroke-miterlimit="10" x1="341.9598" y1="107.3575" x2="343.9598" y2="107.3575"/>
<line fill="none" stroke="#CE3E67" stroke-miterlimit="10" x1="341.9598" y1="129.3575" x2="343.9598" y2="129.3575"/>
<line fill="none" stroke="#CE3E67" stroke-miterlimit="10" x1="341.9598" y1="150.3575" x2="343.9598" y2="150.3575"/>
<line fill="none" stroke="#CE3E67" stroke-miterlimit="10" x1="341.9598" y1="172.3575" x2="343.9598" y2="172.3575"/>
<line fill="none" stroke="#CE3E67" stroke-miterlimit="10" x1="341.9598" y1="194.3575" x2="343.9598" y2="194.3575"/>
<line fill="none" stroke="#CE3E67" stroke-miterlimit="10" x1="369.9598" y1="19.3575" x2="371.9598" y2="19.3575"/>
<line fill="none" stroke="#CE3E67" stroke-miterlimit="10" x1="369.9598" y1="41.3575" x2="371.9598" y2="41.3575"/>
<line fill="none" stroke="#CE3E67" stroke-miterlimit="10" x1="369.9598" y1="63.3575" x2="371.9598" y2="63.3575"/>
<line fill="none" stroke="#CE3E67" stroke-miterlimit="10" x1="369.9598" y1="85.3575" x2="371.9598" y2="85.3575"/>
<line fill="none" stroke="#CE3E67" stroke-miterlimit="10" x1="369.9598" y1="107.3575" x2="371.9598" y2="107.3575"/>
<line fill="none" stroke="#CE3E67" stroke-miterlimit="10" x1="369.9598" y1="129.3575" x2="371.9598" y2="129.3575"/>
<line fill="none" stroke="#CE3E67" stroke-miterlimit="10" x1="369.9598" y1="150.3575" x2="371.9598" y2="150.3575"/>
<line fill="none" stroke="#CE3E67" stroke-miterlimit="10" x1="369.9598" y1="172.3575" x2="371.9598" y2="172.3575"/>
<line fill="none" stroke="#CE3E67" stroke-miterlimit="10" x1="369.9598" y1="194.3575" x2="371.9598" y2="194.3575"/>
<line fill="none" stroke="#CE3E67" stroke-miterlimit="10" x1="397.9598" y1="19.3575" x2="399.9598" y2="19.3575"/>
<line fill="none" stroke="#CE3E67" stroke-miterlimit="10" x1="397.9598" y1="41.3575" x2="399.9598" y2="41.3575"/>
<line fill="none" stroke="#CE3E67" stroke-miterlimit="10" x1="397.9598" y1="63.3575" x2="399.9598" y2="63.3575"/>
<line fill="none" stroke="#CE3E67" stroke-miterlimit="10" x1="397.9598" y1="85.3575" x2="399.9598" y2="85.3575"/>
<line fill="none" stroke="#CE3E67" stroke-miterlimit="10" x1="397.9598" y1="107.3575" x2="399.9598" y2="107.3575"/>
<line fill="none" stroke="#CE3E67" stroke-miterlimit="10" x1="397.9598" y1="129.3575" x2="399.9598" y2="129.3575"/>
<line fill="none" stroke="#CE3E67" stroke-miterlimit="10" x1="397.9598" y1="150.3575" x2="399.9598" y2="150.3575"/>
<line fill="none" stroke="#CE3E67" stroke-miterlimit="10" x1="397.9598" y1="172.3575" x2="399.9598" y2="172.3575"/>
<line fill="none" stroke="#CE3E67" stroke-miterlimit="10" x1="397.9598" y1="194.3575" x2="399.9598" y2="194.3575"/>
<line fill="none" stroke="#CE3E67" stroke-miterlimit="10" x1="425.9598" y1="19.3575" x2="427.9598" y2="19.3575"/>
<line fill="none" stroke="#CE3E67" stroke-miterlimit="10" x1="425.9598" y1="41.3575" x2="427.9598" y2="41.3575"/>
<line fill="none" stroke="#CE3E67" stroke-miterlimit="10" x1="425.9598" y1="63.3575" x2="427.9598" y2="63.3575"/>
<line fill="none" stroke="#CE3E67" stroke-miterlimit="10" x1="425.9598" y1="85.3575" x2="427.9598" y2="85.3575"/>
<line fill="none" stroke="#CE3E67" stroke-miterlimit="10" x1="425.9598" y1="107.3575" x2="427.9598" y2="107.3575"/>
<line fill="none" stroke="#CE3E67" stroke-miterlimit="10" x1="425.9598" y1="129.3575" x2="427.9598" y2="129.3575"/>
<line fill="none" stroke="#CE3E67" stroke-miterlimit="10" x1="425.9598" y1="150.3575" x2="427.9598" y2="150.3575"/>
<line fill="none" stroke="#CE3E67" stroke-miterlimit="10" x1="425.9598" y1="172.3575" x2="427.9598" y2="172.3575"/>
<line fill="none" stroke="#CE3E67" stroke-miterlimit="10" x1="425.9598" y1="194.3575" x2="427.9598" y2="194.3575"/>
<line fill="none" stroke="#CE3E67" stroke-miterlimit="10" x1="453.9598" y1="19.3575" x2="455.9598" y2="19.3575"/>
<line fill="none" stroke="#CE3E67" stroke-miterlimit="10" x1="453.9598" y1="41.3575" x2="455.9598" y2="41.3575"/>
<line fill="none" stroke="#CE3E67" stroke-miterlimit="10" x1="453.9598" y1="63.3575" x2="455.9598" y2="63.3575"/>
<line fill="none" stroke="#CE3E67" stroke-miterlimit="10" x1="453.9598" y1="85.3575" x2="455.9598" y2="85.3575"/>
<line fill="none" stroke="#CE3E67" stroke-miterlimit="10" x1="453.9598" y1="107.3575" x2="455.9598" y2="107.3575"/>
<line fill="none" stroke="#CE3E67" stroke-miterlimit="10" x1="453.9598" y1="129.3575" x2="455.9598" y2="129.3575"/>
<line fill="none" stroke="#CE3E67" stroke-miterlimit="10" x1="453.9598" y1="150.3575" x2="455.9598" y2="150.3575"/>
<line fill="none" stroke="#CE3E67" stroke-miterlimit="10" x1="453.9598" y1="172.3575" x2="455.9598" y2="172.3575"/>
<line fill="none" stroke="#CE3E67" stroke-miterlimit="10" x1="453.9598" y1="194.3575" x2="455.9598" y2="194.3575"/>
</svg>
