<?xml version="1.0" encoding="utf-8"?>
<!-- Generator: Adobe Illustrator 18.1.1, SVG Export Plug-In . SVG Version: 6.00 Build 0)  -->
<svg version="1.1" id="Layer_1" xmlns="http://www.w3.org/2000/svg" xmlns:xlink="http://www.w3.org/1999/xlink" x="0px" y="0px"
	 viewBox="195.7458 153.8901 400 200" enable-background="new 195.7458 153.8901 400 200" xml:space="preserve">
<line fill="none" stroke="#9DB2ED" stroke-width="1.2223" stroke-miterlimit="10" x1="195.8169" y1="154.4971" x2="196.8425" y2="154.4971"/>
<line fill="none" stroke="#9DB2ED" stroke-width="1.2223" stroke-miterlimit="10" x1="195.8169" y1="179.4873" x2="196.8425" y2="179.4873"/>
<line fill="none" stroke="#9DB2ED" stroke-width="1.2223" stroke-miterlimit="10" x1="195.8169" y1="204.4776" x2="196.8425" y2="204.4776"/>
<line fill="none" stroke="#9DB2ED" stroke-width="1.2223" stroke-miterlimit="10" x1="195.8169" y1="229.4678" x2="196.8425" y2="229.4678"/>
<line fill="none" stroke="#9DB2ED" stroke-width="1.2223" stroke-miterlimit="10" x1="195.8169" y1="254.458" x2="196.8425" y2="254.458"/>
<line fill="none" stroke="#9DB2ED" stroke-width="1.2223" stroke-miterlimit="10" x1="195.8169" y1="279.4482" x2="196.8425" y2="279.4482"/>
<line fill="none" stroke="#9DB2ED" stroke-width="1.2223" stroke-miterlimit="10" x1="195.8169" y1="303.3026" x2="196.8425" y2="303.3026"/>
<line fill="none" stroke="#9DB2ED" stroke-width="1.2223" stroke-miterlimit="10" x1="195.8169" y1="328.2928" x2="196.8425" y2="328.2928"/>
<line fill="none" stroke="#9DB2ED" stroke-width="1.2223" stroke-miterlimit="10" x1="195.8169" y1="353.283" x2="196.8425" y2="353.283"/>
<line fill="none" stroke="#9DB2ED" stroke-width="1.2223" stroke-miterlimit="10" x1="222.4057" y1="154.4971" x2="223.4313" y2="154.4971"/>
<line fill="none" stroke="#9DB2ED" stroke-width="1.2223" stroke-miterlimit="10" x1="222.4057" y1="179.4873" x2="223.4313" y2="179.4873"/>
<line fill="none" stroke="#9DB2ED" stroke-width="1.2223" stroke-miterlimit="10" x1="222.4057" y1="204.4776" x2="223.4313" y2="204.4776"/>
<line fill="none" stroke="#9DB2ED" stroke-width="1.2223" stroke-miterlimit="10" x1="222.4057" y1="229.4678" x2="223.4313" y2="229.4678"/>
<line fill="none" stroke="#9DB2ED" stroke-width="1.2223" stroke-miterlimit="10" x1="222.4057" y1="254.458" x2="223.4313" y2="254.458"/>
<line fill="none" stroke="#9DB2ED" stroke-width="1.2223" stroke-miterlimit="10" x1="222.4057" y1="279.4482" x2="223.4313" y2="279.4482"/>
<line fill="none" stroke="#9DB2ED" stroke-width="1.2223" stroke-miterlimit="10" x1="222.4057" y1="303.3026" x2="223.4313" y2="303.3026"/>
<line fill="none" stroke="#9DB2ED" stroke-width="1.2223" stroke-miterlimit="10" x1="222.4057" y1="328.2928" x2="223.4313" y2="328.2928"/>
<line fill="none" stroke="#9DB2ED" stroke-width="1.2223" stroke-miterlimit="10" x1="222.4057" y1="353.283" x2="223.4313" y2="353.283"/>
<line fill="none" stroke="#9DB2ED" stroke-width="1.2223" stroke-miterlimit="10" x1="248.9946" y1="154.4971" x2="250.0201" y2="154.4971"/>
<line fill="none" stroke="#9DB2ED" stroke-width="1.2223" stroke-miterlimit="10" x1="248.9946" y1="179.4873" x2="250.0201" y2="179.4873"/>
<line fill="none" stroke="#9DB2ED" stroke-width="1.2223" stroke-miterlimit="10" x1="248.9946" y1="204.4776" x2="250.0201" y2="204.4776"/>
<line fill="none" stroke="#9DB2ED" stroke-width="1.2223" stroke-miterlimit="10" x1="248.9946" y1="229.4678" x2="250.0201" y2="229.4678"/>
<line fill="none" stroke="#9DB2ED" stroke-width="1.2223" stroke-miterlimit="10" x1="248.9946" y1="254.458" x2="250.0201" y2="254.458"/>
<line fill="none" stroke="#9DB2ED" stroke-width="1.2223" stroke-miterlimit="10" x1="248.9946" y1="279.4482" x2="250.0201" y2="279.4482"/>
<line fill="none" stroke="#9DB2ED" stroke-width="1.2223" stroke-miterlimit="10" x1="248.9946" y1="303.3026" x2="250.0201" y2="303.3026"/>
<line fill="none" stroke="#9DB2ED" stroke-width="1.2223" stroke-miterlimit="10" x1="248.9946" y1="328.2928" x2="250.0201" y2="328.2928"/>
<line fill="none" stroke="#9DB2ED" stroke-width="1.2223" stroke-miterlimit="10" x1="248.9946" y1="353.283" x2="250.0201" y2="353.283"/>
<line fill="none" stroke="#9DB2ED" stroke-width="1.2223" stroke-miterlimit="10" x1="275.5834" y1="154.4971" x2="276.6089" y2="154.4971"/>
<line fill="none" stroke="#9DB2ED" stroke-width="1.2223" stroke-miterlimit="10" x1="275.5834" y1="179.4873" x2="276.6089" y2="179.4873"/>
<line fill="none" stroke="#9DB2ED" stroke-width="1.2223" stroke-miterlimit="10" x1="275.5834" y1="204.4776" x2="276.6089" y2="204.4776"/>
<line fill="none" stroke="#9DB2ED" stroke-width="1.2223" stroke-miterlimit="10" x1="275.5834" y1="229.4678" x2="276.6089" y2="229.4678"/>
<line fill="none" stroke="#9DB2ED" stroke-width="1.2223" stroke-miterlimit="10" x1="275.5834" y1="254.458" x2="276.6089" y2="254.458"/>
<line fill="none" stroke="#9DB2ED" stroke-width="1.2223" stroke-miterlimit="10" x1="275.5834" y1="279.4482" x2="276.6089" y2="279.4482"/>
<line fill="none" stroke="#9DB2ED" stroke-width="1.2223" stroke-miterlimit="10" x1="275.5834" y1="303.3026" x2="276.6089" y2="303.3026"/>
<line fill="none" stroke="#9DB2ED" stroke-width="1.2223" stroke-miterlimit="10" x1="275.5834" y1="328.2928" x2="276.6089" y2="328.2928"/>
<line fill="none" stroke="#9DB2ED" stroke-width="1.2223" stroke-miterlimit="10" x1="275.5834" y1="353.283" x2="276.6089" y2="353.283"/>
<line fill="none" stroke="#9DB2ED" stroke-width="1.2223" stroke-miterlimit="10" x1="302.1722" y1="154.4971" x2="303.1978" y2="154.4971"/>
<line fill="none" stroke="#9DB2ED" stroke-width="1.2223" stroke-miterlimit="10" x1="302.1722" y1="179.4873" x2="303.1978" y2="179.4873"/>
<line fill="none" stroke="#9DB2ED" stroke-width="1.2223" stroke-miterlimit="10" x1="302.1722" y1="204.4776" x2="303.1978" y2="204.4776"/>
<line fill="none" stroke="#9DB2ED" stroke-width="1.2223" stroke-miterlimit="10" x1="302.1722" y1="229.4678" x2="303.1978" y2="229.4678"/>
<line fill="none" stroke="#9DB2ED" stroke-width="1.2223" stroke-miterlimit="10" x1="302.1722" y1="254.458" x2="303.1978" y2="254.458"/>
<line fill="none" stroke="#9DB2ED" stroke-width="1.2223" stroke-miterlimit="10" x1="302.1722" y1="279.4482" x2="303.1978" y2="279.4482"/>
<line fill="none" stroke="#9DB2ED" stroke-width="1.2223" stroke-miterlimit="10" x1="302.1722" y1="303.3026" x2="303.1978" y2="303.3026"/>
<line fill="none" stroke="#9DB2ED" stroke-width="1.2223" stroke-miterlimit="10" x1="302.1722" y1="328.2928" x2="303.1978" y2="328.2928"/>
<line fill="none" stroke="#9DB2ED" stroke-width="1.2223" stroke-miterlimit="10" x1="302.1722" y1="353.283" x2="303.1978" y2="353.283"/>
<line fill="none" stroke="#9DB2ED" stroke-width="1.2223" stroke-miterlimit="10" x1="328.761" y1="154.4971" x2="329.7866" y2="154.4971"/>
<line fill="none" stroke="#9DB2ED" stroke-width="1.2223" stroke-miterlimit="10" x1="328.761" y1="179.4873" x2="329.7866" y2="179.4873"/>
<line fill="none" stroke="#9DB2ED" stroke-width="1.2223" stroke-miterlimit="10" x1="328.761" y1="204.4776" x2="329.7866" y2="204.4776"/>
<line fill="none" stroke="#9DB2ED" stroke-width="1.2223" stroke-miterlimit="10" x1="328.761" y1="229.4678" x2="329.7866" y2="229.4678"/>
<line fill="none" stroke="#9DB2ED" stroke-width="1.2223" stroke-miterlimit="10" x1="328.761" y1="254.458" x2="329.7866" y2="254.458"/>
<line fill="none" stroke="#9DB2ED" stroke-width="1.2223" stroke-miterlimit="10" x1="328.761" y1="279.4482" x2="329.7866" y2="279.4482"/>
<line fill="none" stroke="#9DB2ED" stroke-width="1.2223" stroke-miterlimit="10" x1="328.761" y1="303.3026" x2="329.7866" y2="303.3026"/>
<line fill="none" stroke="#9DB2ED" stroke-width="1.2223" stroke-miterlimit="10" x1="328.761" y1="328.2928" x2="329.7866" y2="328.2928"/>
<line fill="none" stroke="#9DB2ED" stroke-width="1.2223" stroke-miterlimit="10" x1="328.761" y1="353.283" x2="329.7866" y2="353.283"/>
<line fill="none" stroke="#9DB2ED" stroke-width="1.2223" stroke-miterlimit="10" x1="355.3498" y1="154.4971" x2="356.3754" y2="154.4971"/>
<line fill="none" stroke="#9DB2ED" stroke-width="1.2223" stroke-miterlimit="10" x1="355.3498" y1="179.4873" x2="356.3754" y2="179.4873"/>
<line fill="none" stroke="#9DB2ED" stroke-width="1.2223" stroke-miterlimit="10" x1="355.3498" y1="204.4776" x2="356.3754" y2="204.4776"/>
<line fill="none" stroke="#9DB2ED" stroke-width="1.2223" stroke-miterlimit="10" x1="355.3498" y1="229.4678" x2="356.3754" y2="229.4678"/>
<line fill="none" stroke="#9DB2ED" stroke-width="1.2223" stroke-miterlimit="10" x1="355.3498" y1="254.458" x2="356.3754" y2="254.458"/>
<line fill="none" stroke="#9DB2ED" stroke-width="1.2223" stroke-miterlimit="10" x1="355.3498" y1="279.4482" x2="356.3754" y2="279.4482"/>
<line fill="none" stroke="#9DB2ED" stroke-width="1.2223" stroke-miterlimit="10" x1="355.3498" y1="303.3026" x2="356.3754" y2="303.3026"/>
<line fill="none" stroke="#9DB2ED" stroke-width="1.2223" stroke-miterlimit="10" x1="355.3498" y1="328.2928" x2="356.3754" y2="328.2928"/>
<line fill="none" stroke="#9DB2ED" stroke-width="1.2223" stroke-miterlimit="10" x1="355.3498" y1="353.283" x2="356.3754" y2="353.283"/>
<line fill="none" stroke="#9DB2ED" stroke-width="1.2223" stroke-miterlimit="10" x1="381.9386" y1="154.4971" x2="382.9642" y2="154.4971"/>
<line fill="none" stroke="#9DB2ED" stroke-width="1.2223" stroke-miterlimit="10" x1="381.9386" y1="179.4873" x2="382.9642" y2="179.4873"/>
<line fill="none" stroke="#9DB2ED" stroke-width="1.2223" stroke-miterlimit="10" x1="381.9386" y1="204.4776" x2="382.9642" y2="204.4776"/>
<line fill="none" stroke="#9DB2ED" stroke-width="1.2223" stroke-miterlimit="10" x1="381.9386" y1="229.4678" x2="382.9642" y2="229.4678"/>
<line fill="none" stroke="#9DB2ED" stroke-width="1.2223" stroke-miterlimit="10" x1="381.9386" y1="254.458" x2="382.9642" y2="254.458"/>
<line fill="none" stroke="#9DB2ED" stroke-width="1.2223" stroke-miterlimit="10" x1="381.9386" y1="279.4482" x2="382.9642" y2="279.4482"/>
<line fill="none" stroke="#9DB2ED" stroke-width="1.2223" stroke-miterlimit="10" x1="381.9386" y1="303.3026" x2="382.9642" y2="303.3026"/>
<line fill="none" stroke="#9DB2ED" stroke-width="1.2223" stroke-miterlimit="10" x1="381.9386" y1="328.2928" x2="382.9642" y2="328.2928"/>
<line fill="none" stroke="#9DB2ED" stroke-width="1.2223" stroke-miterlimit="10" x1="381.9386" y1="353.283" x2="382.9642" y2="353.283"/>
<line fill="none" stroke="#9DB2ED" stroke-width="1.2223" stroke-miterlimit="10" x1="408.5274" y1="154.4971" x2="409.553" y2="154.4971"/>
<line fill="none" stroke="#9DB2ED" stroke-width="1.2223" stroke-miterlimit="10" x1="408.5274" y1="179.4873" x2="409.553" y2="179.4873"/>
<line fill="none" stroke="#9DB2ED" stroke-width="1.2223" stroke-miterlimit="10" x1="408.5274" y1="204.4776" x2="409.553" y2="204.4776"/>
<line fill="none" stroke="#9DB2ED" stroke-width="1.2223" stroke-miterlimit="10" x1="408.5274" y1="229.4678" x2="409.553" y2="229.4678"/>
<line fill="none" stroke="#9DB2ED" stroke-width="1.2223" stroke-miterlimit="10" x1="408.5274" y1="254.458" x2="409.553" y2="254.458"/>
<line fill="none" stroke="#9DB2ED" stroke-width="1.2223" stroke-miterlimit="10" x1="408.5274" y1="279.4482" x2="409.553" y2="279.4482"/>
<line fill="none" stroke="#9DB2ED" stroke-width="1.2223" stroke-miterlimit="10" x1="408.5274" y1="303.3026" x2="409.553" y2="303.3026"/>
<line fill="none" stroke="#9DB2ED" stroke-width="1.2223" stroke-miterlimit="10" x1="408.5274" y1="328.2928" x2="409.553" y2="328.2928"/>
<line fill="none" stroke="#9DB2ED" stroke-width="1.2223" stroke-miterlimit="10" x1="408.5274" y1="353.283" x2="409.553" y2="353.283"/>
<line fill="none" stroke="#9DB2ED" stroke-width="1.2223" stroke-miterlimit="10" x1="435.1163" y1="154.4971" x2="436.1418" y2="154.4971"/>
<line fill="none" stroke="#9DB2ED" stroke-width="1.2223" stroke-miterlimit="10" x1="435.1163" y1="179.4873" x2="436.1418" y2="179.4873"/>
<line fill="none" stroke="#9DB2ED" stroke-width="1.2223" stroke-miterlimit="10" x1="435.1163" y1="204.4776" x2="436.1418" y2="204.4776"/>
<line fill="none" stroke="#9DB2ED" stroke-width="1.2223" stroke-miterlimit="10" x1="435.1163" y1="229.4678" x2="436.1418" y2="229.4678"/>
<line fill="none" stroke="#9DB2ED" stroke-width="1.2223" stroke-miterlimit="10" x1="435.1163" y1="254.458" x2="436.1418" y2="254.458"/>
<line fill="none" stroke="#9DB2ED" stroke-width="1.2223" stroke-miterlimit="10" x1="435.1163" y1="279.4482" x2="436.1418" y2="279.4482"/>
<line fill="none" stroke="#9DB2ED" stroke-width="1.2223" stroke-miterlimit="10" x1="435.1163" y1="303.3026" x2="436.1418" y2="303.3026"/>
<line fill="none" stroke="#9DB2ED" stroke-width="1.2223" stroke-miterlimit="10" x1="435.1163" y1="328.2928" x2="436.1418" y2="328.2928"/>
<line fill="none" stroke="#9DB2ED" stroke-width="1.2223" stroke-miterlimit="10" x1="435.1163" y1="353.283" x2="436.1418" y2="353.283"/>
<line fill="none" stroke="#9DB2ED" stroke-width="1.2223" stroke-miterlimit="10" x1="461.7051" y1="154.4971" x2="462.7307" y2="154.4971"/>
<line fill="none" stroke="#9DB2ED" stroke-width="1.2223" stroke-miterlimit="10" x1="461.7051" y1="179.4873" x2="462.7307" y2="179.4873"/>
<line fill="none" stroke="#9DB2ED" stroke-width="1.2223" stroke-miterlimit="10" x1="461.7051" y1="204.4776" x2="462.7307" y2="204.4776"/>
<line fill="none" stroke="#9DB2ED" stroke-width="1.2223" stroke-miterlimit="10" x1="461.7051" y1="229.4678" x2="462.7307" y2="229.4678"/>
<line fill="none" stroke="#9DB2ED" stroke-width="1.2223" stroke-miterlimit="10" x1="461.7051" y1="254.458" x2="462.7307" y2="254.458"/>
<line fill="none" stroke="#9DB2ED" stroke-width="1.2223" stroke-miterlimit="10" x1="461.7051" y1="279.4482" x2="462.7307" y2="279.4482"/>
<line fill="none" stroke="#9DB2ED" stroke-width="1.2223" stroke-miterlimit="10" x1="461.7051" y1="303.3026" x2="462.7307" y2="303.3026"/>
<line fill="none" stroke="#9DB2ED" stroke-width="1.2223" stroke-miterlimit="10" x1="461.7051" y1="328.2928" x2="462.7307" y2="328.2928"/>
<line fill="none" stroke="#9DB2ED" stroke-width="1.2223" stroke-miterlimit="10" x1="461.7051" y1="353.283" x2="462.7307" y2="353.283"/>
<line fill="none" stroke="#9DB2ED" stroke-width="1.2223" stroke-miterlimit="10" x1="488.2939" y1="154.4971" x2="489.3195" y2="154.4971"/>
<line fill="none" stroke="#9DB2ED" stroke-width="1.2223" stroke-miterlimit="10" x1="488.2939" y1="179.4873" x2="489.3195" y2="179.4873"/>
<line fill="none" stroke="#9DB2ED" stroke-width="1.2223" stroke-miterlimit="10" x1="488.2939" y1="204.4776" x2="489.3195" y2="204.4776"/>
<line fill="none" stroke="#9DB2ED" stroke-width="1.2223" stroke-miterlimit="10" x1="488.2939" y1="229.4678" x2="489.3195" y2="229.4678"/>
<line fill="none" stroke="#9DB2ED" stroke-width="1.2223" stroke-miterlimit="10" x1="488.2939" y1="254.458" x2="489.3195" y2="254.458"/>
<line fill="none" stroke="#9DB2ED" stroke-width="1.2223" stroke-miterlimit="10" x1="488.2939" y1="279.4482" x2="489.3195" y2="279.4482"/>
<line fill="none" stroke="#9DB2ED" stroke-width="1.2223" stroke-miterlimit="10" x1="488.2939" y1="303.3026" x2="489.3195" y2="303.3026"/>
<line fill="none" stroke="#9DB2ED" stroke-width="1.2223" stroke-miterlimit="10" x1="488.2939" y1="328.2928" x2="489.3195" y2="328.2928"/>
<line fill="none" stroke="#9DB2ED" stroke-width="1.2223" stroke-miterlimit="10" x1="488.2939" y1="353.283" x2="489.3195" y2="353.283"/>
<line fill="none" stroke="#9DB2ED" stroke-width="1.2223" stroke-miterlimit="10" x1="514.8827" y1="154.4971" x2="515.9083" y2="154.4971"/>
<line fill="none" stroke="#9DB2ED" stroke-width="1.2223" stroke-miterlimit="10" x1="514.8827" y1="179.4873" x2="515.9083" y2="179.4873"/>
<line fill="none" stroke="#9DB2ED" stroke-width="1.2223" stroke-miterlimit="10" x1="514.8827" y1="204.4776" x2="515.9083" y2="204.4776"/>
<line fill="none" stroke="#9DB2ED" stroke-width="1.2223" stroke-miterlimit="10" x1="514.8827" y1="229.4678" x2="515.9083" y2="229.4678"/>
<line fill="none" stroke="#9DB2ED" stroke-width="1.2223" stroke-miterlimit="10" x1="514.8827" y1="254.458" x2="515.9083" y2="254.458"/>
<line fill="none" stroke="#9DB2ED" stroke-width="1.2223" stroke-miterlimit="10" x1="514.8827" y1="279.4482" x2="515.9083" y2="279.4482"/>
<line fill="none" stroke="#9DB2ED" stroke-width="1.2223" stroke-miterlimit="10" x1="514.8827" y1="303.3026" x2="515.9083" y2="303.3026"/>
<line fill="none" stroke="#9DB2ED" stroke-width="1.2223" stroke-miterlimit="10" x1="514.8827" y1="328.2928" x2="515.9083" y2="328.2928"/>
<line fill="none" stroke="#9DB2ED" stroke-width="1.2223" stroke-miterlimit="10" x1="514.8827" y1="353.283" x2="515.9083" y2="353.283"/>
<line fill="none" stroke="#9DB2ED" stroke-width="1.2223" stroke-miterlimit="10" x1="541.4715" y1="154.4971" x2="542.4971" y2="154.4971"/>
<line fill="none" stroke="#9DB2ED" stroke-width="1.2223" stroke-miterlimit="10" x1="541.4715" y1="179.4873" x2="542.4971" y2="179.4873"/>
<line fill="none" stroke="#9DB2ED" stroke-width="1.2223" stroke-miterlimit="10" x1="541.4715" y1="204.4776" x2="542.4971" y2="204.4776"/>
<line fill="none" stroke="#9DB2ED" stroke-width="1.2223" stroke-miterlimit="10" x1="541.4715" y1="229.4678" x2="542.4971" y2="229.4678"/>
<line fill="none" stroke="#9DB2ED" stroke-width="1.2223" stroke-miterlimit="10" x1="541.4715" y1="254.458" x2="542.4971" y2="254.458"/>
<line fill="none" stroke="#9DB2ED" stroke-width="1.2223" stroke-miterlimit="10" x1="541.4715" y1="279.4482" x2="542.4971" y2="279.4482"/>
<line fill="none" stroke="#9DB2ED" stroke-width="1.2223" stroke-miterlimit="10" x1="541.4715" y1="303.3026" x2="542.4971" y2="303.3026"/>
<line fill="none" stroke="#9DB2ED" stroke-width="1.2223" stroke-miterlimit="10" x1="541.4715" y1="328.2928" x2="542.4971" y2="328.2928"/>
<line fill="none" stroke="#9DB2ED" stroke-width="1.2223" stroke-miterlimit="10" x1="541.4715" y1="353.283" x2="542.4971" y2="353.283"/>
<line fill="none" stroke="#9DB2ED" stroke-width="1.2223" stroke-miterlimit="10" x1="568.0603" y1="154.4971" x2="569.0859" y2="154.4971"/>
<line fill="none" stroke="#9DB2ED" stroke-width="1.2223" stroke-miterlimit="10" x1="568.0603" y1="179.4873" x2="569.0859" y2="179.4873"/>
<line fill="none" stroke="#9DB2ED" stroke-width="1.2223" stroke-miterlimit="10" x1="568.0603" y1="204.4776" x2="569.0859" y2="204.4776"/>
<line fill="none" stroke="#9DB2ED" stroke-width="1.2223" stroke-miterlimit="10" x1="568.0603" y1="229.4678" x2="569.0859" y2="229.4678"/>
<line fill="none" stroke="#9DB2ED" stroke-width="1.2223" stroke-miterlimit="10" x1="568.0603" y1="254.458" x2="569.0859" y2="254.458"/>
<line fill="none" stroke="#9DB2ED" stroke-width="1.2223" stroke-miterlimit="10" x1="568.0603" y1="279.4482" x2="569.0859" y2="279.4482"/>
<line fill="none" stroke="#9DB2ED" stroke-width="1.2223" stroke-miterlimit="10" x1="568.0603" y1="303.3026" x2="569.0859" y2="303.3026"/>
<line fill="none" stroke="#9DB2ED" stroke-width="1.2223" stroke-miterlimit="10" x1="568.0603" y1="328.2928" x2="569.0859" y2="328.2928"/>
<line fill="none" stroke="#9DB2ED" stroke-width="1.2223" stroke-miterlimit="10" x1="568.0603" y1="353.283" x2="569.0859" y2="353.283"/>
<line fill="none" stroke="#9DB2ED" stroke-width="1.2223" stroke-miterlimit="10" x1="594.6492" y1="154.4971" x2="595.6747" y2="154.4971"/>
<line fill="none" stroke="#9DB2ED" stroke-width="1.2223" stroke-miterlimit="10" x1="594.6492" y1="179.4873" x2="595.6747" y2="179.4873"/>
<line fill="none" stroke="#9DB2ED" stroke-width="1.2223" stroke-miterlimit="10" x1="594.6492" y1="204.4776" x2="595.6747" y2="204.4776"/>
<line fill="none" stroke="#9DB2ED" stroke-width="1.2223" stroke-miterlimit="10" x1="594.6492" y1="229.4678" x2="595.6747" y2="229.4678"/>
<line fill="none" stroke="#9DB2ED" stroke-width="1.2223" stroke-miterlimit="10" x1="594.6492" y1="254.458" x2="595.6747" y2="254.458"/>
<line fill="none" stroke="#9DB2ED" stroke-width="1.2223" stroke-miterlimit="10" x1="594.6492" y1="279.4482" x2="595.6747" y2="279.4482"/>
<line fill="none" stroke="#9DB2ED" stroke-width="1.2223" stroke-miterlimit="10" x1="594.6492" y1="303.3026" x2="595.6747" y2="303.3026"/>
<line fill="none" stroke="#9DB2ED" stroke-width="1.2223" stroke-miterlimit="10" x1="594.6492" y1="328.2928" x2="595.6747" y2="328.2928"/>
<line fill="none" stroke="#9DB2ED" stroke-width="1.2223" stroke-miterlimit="10" x1="594.6492" y1="353.283" x2="595.6747" y2="353.283"/>
</svg>
