<?xml version="1.0" encoding="utf-8"?>
<!-- Generator: Adobe Illustrator 18.1.1, SVG Export Plug-In . SVG Version: 6.00 Build 0)  -->
<svg version="1.1" id="Layer_1" xmlns="http://www.w3.org/2000/svg" xmlns:xlink="http://www.w3.org/1999/xlink" x="0px" y="0px"
	 viewBox="59.1519 110.4409 715.3765 416.5376" enable-background="new 59.1519 110.4409 715.3765 416.5376" xml:space="preserve">
<circle fill="#9DB2ED" cx="567.6979" cy="318.7097" r="206.8304"/>
<path fill="#9DB2ED" d="M441.5303,154.7134C355,227.2887,293.8361,267.8639,219.6534,273.1306H102.7758
	c-24.0544,0-43.6239,19.5696-43.6239,43.624v3.8167c0,24.0544,19.5695,43.624,43.6239,43.624h116.8777
	C293.8361,369.4619,355,410.0371,441.5303,482.6123V154.7134z"/>
<path fill="none" stroke="#CA3353" stroke-width="8" stroke-miterlimit="10" d="M307.5522,341.7814
	c12.7979,0,23.2097-10.4122,23.2097-23.2101s-10.4118-23.2101-23.2097-23.2101H103.3921c-12.7979,0-23.2101,10.4122-23.2101,23.2101
	s10.4122,23.2101,23.2101,23.2101H307.5522z"/>
<g>
	<path fill="none" stroke="#CA3353" stroke-width="2.1444" stroke-linecap="round" stroke-miterlimit="10" d="M577.1102,294.1504
		c-67.4905-2.2552-124.27,60.7722-126.9481,140.9172"/>
	<path fill="none" stroke="#CA3353" stroke-width="2.1444" stroke-linecap="round" stroke-miterlimit="10" d="M556.9874,294.6882
		c-49.3177,46.1282-44.8997,130.8446,9.8777,189.4095"/>
	<path fill="none" stroke="#CA3353" stroke-width="2.1444" stroke-linecap="round" stroke-miterlimit="10" d="M543.1386,309.2974
		c-2.2552,67.4905,60.7722,124.27,140.9172,126.9481"/>
	<path fill="none" stroke="#CA3353" stroke-width="2.1444" stroke-linecap="round" stroke-miterlimit="10" d="M543.6764,329.4205
		c46.1284,49.3177,130.8445,44.8997,189.4095-9.8777"/>
	<path fill="none" stroke="#CA3353" stroke-width="2.1444" stroke-linecap="round" stroke-miterlimit="10" d="M558.2856,343.2692
		c67.4905,2.2552,124.27-60.7722,126.9481-140.9172"/>
	<path fill="none" stroke="#CA3353" stroke-width="2.1444" stroke-linecap="round" stroke-miterlimit="10" d="M578.4087,342.7313
		c49.3177-46.1282,44.8997-130.8446-9.8777-189.4095"/>
	<path fill="none" stroke="#CA3353" stroke-width="2.1444" stroke-linecap="round" stroke-miterlimit="10" d="M592.2572,328.122
		c2.2552-67.4905-60.7722-124.27-140.9171-126.9481"/>
	<path fill="none" stroke="#CA3353" stroke-width="2.1444" stroke-linecap="round" stroke-miterlimit="10" d="M591.7195,307.9992
		c-46.1285-49.3177-130.8446-44.8997-189.4095,9.8777"/>
</g>
<g>
	<path fill="none" stroke="#CA3353" stroke-width="2.1444" stroke-linecap="round" stroke-miterlimit="10" d="M574.9319,293.423
		c-67.43,3.641-118.4948,71.3813-114.1711,151.4543"/>
	<path fill="none" stroke="#CA3353" stroke-width="2.1444" stroke-linecap="round" stroke-miterlimit="10" d="M554.9327,295.7141
		c-45.1057,50.2546-33.3143,134.2626,26.3633,187.8257"/>
	<path fill="none" stroke="#CA3353" stroke-width="2.1444" stroke-linecap="round" stroke-miterlimit="10" d="M542.4111,311.4758
		c3.641,67.43,71.3813,118.4947,151.4543,114.1711"/>
	<path fill="none" stroke="#CA3353" stroke-width="2.1444" stroke-linecap="round" stroke-miterlimit="10" d="M544.7023,331.4752
		c50.2548,45.1057,134.2626,33.3142,187.8257-26.3633"/>
	<path fill="none" stroke="#CA3353" stroke-width="2.1444" stroke-linecap="round" stroke-miterlimit="10" d="M560.464,343.9967
		c67.43-3.641,118.4948-71.3813,114.1711-151.4543"/>
	<path fill="none" stroke="#CA3353" stroke-width="2.1444" stroke-linecap="round" stroke-miterlimit="10" d="M580.4634,341.7053
		c45.1057-50.2546,33.3143-134.2626-26.3633-187.8257"/>
	<path fill="none" stroke="#CA3353" stroke-width="2.1444" stroke-linecap="round" stroke-miterlimit="10" d="M592.9847,325.9437
		c-3.641-67.43-71.3813-118.4947-151.4543-114.1711"/>
	<path fill="none" stroke="#CA3353" stroke-width="2.1444" stroke-linecap="round" stroke-miterlimit="10" d="M590.6935,305.9445
		c-50.2549-45.1057-134.2626-33.3142-187.8257,26.3633"/>
</g>
<g>
	<path fill="none" stroke="#CA3353" stroke-width="2.1444" stroke-linecap="round" stroke-miterlimit="10" d="M572.6984,292.8883
		c-66.8553,9.5094-111.816,81.4462-100.5236,160.8368"/>
	<path fill="none" stroke="#CA3353" stroke-width="2.1444" stroke-linecap="round" stroke-miterlimit="10" d="M552.9753,296.9153
		c-40.5497,53.9979-21.4747,136.657,42.6479,184.8099"/>
	<path fill="none" stroke="#CA3353" stroke-width="2.1444" stroke-linecap="round" stroke-miterlimit="10" d="M541.8765,313.7093
		c9.5095,66.8553,81.4462,111.816,160.8368,100.5237"/>
	<path fill="none" stroke="#CA3353" stroke-width="2.1444" stroke-linecap="round" stroke-miterlimit="10" d="M545.9036,333.4326
		c53.9981,40.5497,136.657,21.4747,184.8099-42.6479"/>
	<path fill="none" stroke="#CA3353" stroke-width="2.1444" stroke-linecap="round" stroke-miterlimit="10" d="M562.6975,344.5313
		c66.8553-9.5094,111.816-81.4462,100.5236-160.8368"/>
	<path fill="none" stroke="#CA3353" stroke-width="2.1444" stroke-linecap="round" stroke-miterlimit="10" d="M582.4208,340.5041
		c40.5497-53.9979,21.4747-136.657-42.6479-184.8099"/>
	<path fill="none" stroke="#CA3353" stroke-width="2.1444" stroke-linecap="round" stroke-miterlimit="10" d="M593.5193,323.7102
		c-9.5094-66.8553-81.4462-111.816-160.8368-100.5236"/>
	<path fill="none" stroke="#CA3353" stroke-width="2.1444" stroke-linecap="round" stroke-miterlimit="10" d="M589.4923,303.9871
		c-53.9981-40.5497-136.657-21.4747-184.8099,42.6479"/>
</g>
<g>
	<path fill="none" stroke="#CA3353" stroke-width="2.1444" stroke-linecap="round" stroke-miterlimit="10" d="M570.4268,292.5505
		c-65.7708,15.3053-104.2847,90.89-86.1097,168.9929"/>
	<path fill="none" stroke="#CA3353" stroke-width="2.1444" stroke-linecap="round" stroke-miterlimit="10" d="M551.1302,298.2828
		c-35.6846,57.3294-9.4715,138.0093,58.6073,180.3849"/>
	<path fill="none" stroke="#CA3353" stroke-width="2.1444" stroke-linecap="round" stroke-miterlimit="10" d="M541.5387,315.9809
		c15.3054,65.7708,90.89,104.2847,168.9929,86.1097"/>
	<path fill="none" stroke="#CA3353" stroke-width="2.1444" stroke-linecap="round" stroke-miterlimit="10" d="M547.271,335.2777
		c57.3297,35.6845,138.0094,9.4715,180.3849-58.6073"/>
	<path fill="none" stroke="#CA3353" stroke-width="2.1444" stroke-linecap="round" stroke-miterlimit="10" d="M564.9691,344.8691
		c65.7709-15.3054,104.2847-90.89,86.1097-168.9928"/>
	<path fill="none" stroke="#CA3353" stroke-width="2.1444" stroke-linecap="round" stroke-miterlimit="10" d="M584.2659,339.1366
		c35.6846-57.3294,9.4715-138.0093-58.6073-180.3849"/>
	<path fill="none" stroke="#CA3353" stroke-width="2.1444" stroke-linecap="round" stroke-miterlimit="10" d="M593.8571,321.4386
		c-15.3054-65.7709-90.89-104.2847-168.9929-86.1097"/>
	<path fill="none" stroke="#CA3353" stroke-width="2.1444" stroke-linecap="round" stroke-miterlimit="10" d="M588.1249,302.142
		c-57.3297-35.6846-138.0094-9.4715-180.3849,58.6073"/>
</g>
<g>
	<path fill="none" stroke="#CA3353" stroke-width="2.1444" stroke-linecap="round" stroke-miterlimit="10" d="M568.1343,292.4122
		c-64.1849,20.9846-95.9583,99.6409-71.0392,175.8604"/>
	<path fill="none" stroke="#CA3353" stroke-width="2.1444" stroke-linecap="round" stroke-miterlimit="10" d="M549.4114,299.8059
		c-30.5474,60.2238,2.6039,138.3095,74.1199,174.5846"/>
	<path fill="none" stroke="#CA3353" stroke-width="2.1444" stroke-linecap="round" stroke-miterlimit="10" d="M541.4004,318.2733
		c20.9846,64.1849,99.6409,95.9583,175.8604,71.0392"/>
	<path fill="none" stroke="#CA3353" stroke-width="2.1444" stroke-linecap="round" stroke-miterlimit="10" d="M548.7942,336.9965
		c60.2241,30.5473,138.3095-2.604,174.5846-74.1199"/>
	<path fill="none" stroke="#CA3353" stroke-width="2.1444" stroke-linecap="round" stroke-miterlimit="10" d="M567.2615,345.0074
		c64.1849-20.9846,95.9583-99.6409,71.0392-175.8605"/>
	<path fill="none" stroke="#CA3353" stroke-width="2.1444" stroke-linecap="round" stroke-miterlimit="10" d="M585.9847,337.6134
		c30.5474-60.2238-2.6039-138.3095-74.1199-174.5846"/>
	<path fill="none" stroke="#CA3353" stroke-width="2.1444" stroke-linecap="round" stroke-miterlimit="10" d="M593.9955,319.1461
		c-20.9846-64.1849-99.6409-95.9583-175.8605-71.0392"/>
	<path fill="none" stroke="#CA3353" stroke-width="2.1444" stroke-linecap="round" stroke-miterlimit="10" d="M586.6017,300.4232
		c-60.224-30.5473-138.3095,2.6039-174.5846,74.1199"/>
</g>
<g>
	<path fill="none" stroke="#CA3353" stroke-width="2.1444" stroke-linecap="round" stroke-miterlimit="10" d="M565.8386,292.4744
		c-62.1097,26.5038-86.9003,107.632-55.4271,181.3872"/>
	<path fill="none" stroke="#CA3353" stroke-width="2.1444" stroke-linecap="round" stroke-miterlimit="10" d="M547.832,301.4732
		c-25.1773,62.6591,14.6595,137.5551,89.0673,167.4531"/>
	<path fill="none" stroke="#CA3353" stroke-width="2.1444" stroke-linecap="round" stroke-miterlimit="10" d="M541.4625,320.569
		c26.5038,62.1096,107.632,86.9002,181.3872,55.4271"/>
	<path fill="none" stroke="#CA3353" stroke-width="2.1444" stroke-linecap="round" stroke-miterlimit="10" d="M550.4615,338.5758
		c62.6592,25.1772,137.555-14.6595,167.4531-89.0673"/>
	<path fill="none" stroke="#CA3353" stroke-width="2.1444" stroke-linecap="round" stroke-miterlimit="10" d="M569.5573,344.9453
		c62.1097-26.5038,86.9002-107.632,55.4271-181.3872"/>
	<path fill="none" stroke="#CA3353" stroke-width="2.1444" stroke-linecap="round" stroke-miterlimit="10" d="M587.564,335.9461
		c25.1772-62.659-14.6595-137.555-89.0673-167.4531"/>
	<path fill="none" stroke="#CA3353" stroke-width="2.1444" stroke-linecap="round" stroke-miterlimit="10" d="M593.9333,316.8504
		c-26.5038-62.1096-107.632-86.9002-181.3872-55.4271"/>
	<path fill="none" stroke="#CA3353" stroke-width="2.1444" stroke-linecap="round" stroke-miterlimit="10" d="M584.9344,298.8438
		c-62.6592-25.1772-137.5551,14.6595-167.4531,89.0673"/>
</g>
<g>
	<path fill="none" stroke="#CA3353" stroke-width="2.1444" stroke-linecap="round" stroke-miterlimit="10" d="M563.557,292.7366
		c-59.5608,31.8209-77.1796,114.8025-39.3923,185.5309"/>
	<path fill="none" stroke="#CA3353" stroke-width="2.1444" stroke-linecap="round" stroke-miterlimit="10" d="M546.4041,303.272
		c-19.6152,64.6165,26.6033,135.7518,103.3356,159.0449"/>
	<path fill="none" stroke="#CA3353" stroke-width="2.1444" stroke-linecap="round" stroke-miterlimit="10" d="M541.7248,322.8506
		c31.8209,59.5608,114.8025,77.1796,185.5309,39.3924"/>
	<path fill="none" stroke="#CA3353" stroke-width="2.1444" stroke-linecap="round" stroke-miterlimit="10" d="M552.2603,340.0037
		c64.6168,19.6151,135.7518-26.6034,159.0449-103.3357"/>
	<path fill="none" stroke="#CA3353" stroke-width="2.1444" stroke-linecap="round" stroke-miterlimit="10" d="M571.8389,344.683
		c59.5608-31.8209,77.1796-114.8025,39.3923-185.5309"/>
	<path fill="none" stroke="#CA3353" stroke-width="2.1444" stroke-linecap="round" stroke-miterlimit="10" d="M588.9919,334.1473
		c19.6152-64.6165-26.6034-135.7518-103.3357-159.0449"/>
	<path fill="none" stroke="#CA3353" stroke-width="2.1444" stroke-linecap="round" stroke-miterlimit="10" d="M593.6711,314.5688
		c-31.8209-59.5608-114.8025-77.1796-185.5309-39.3924"/>
	<path fill="none" stroke="#CA3353" stroke-width="2.1444" stroke-linecap="round" stroke-miterlimit="10" d="M583.1357,297.4159
		c-64.6168-19.6151-135.7518,26.6034-159.0449,103.3357"/>
</g>
<g>
	<path fill="none" stroke="#CA3353" stroke-width="2.1444" stroke-linecap="round" stroke-miterlimit="10" d="M561.307,293.1968
		c-56.5578,36.8954-66.8705,121.0977-23.0573,188.26"/>
	<path fill="none" stroke="#CA3353" stroke-width="2.1444" stroke-linecap="round" stroke-miterlimit="10" d="M545.1385,305.1884
		c-13.9036,66.0813,38.3444,132.9135,116.8161,149.424"/>
	<path fill="none" stroke="#CA3353" stroke-width="2.1444" stroke-linecap="round" stroke-miterlimit="10" d="M542.185,325.1006
		c36.8954,56.5578,121.0977,66.8705,188.26,23.0573"/>
	<path fill="none" stroke="#CA3353" stroke-width="2.1444" stroke-linecap="round" stroke-miterlimit="10" d="M554.1767,341.2693
		c66.0815,13.9034,132.9135-38.3444,149.424-116.8161"/>
	<path fill="none" stroke="#CA3353" stroke-width="2.1444" stroke-linecap="round" stroke-miterlimit="10" d="M574.0889,344.2227
		c56.5578-36.8954,66.8705-121.0976,23.0573-188.26"/>
	<path fill="none" stroke="#CA3353" stroke-width="2.1444" stroke-linecap="round" stroke-miterlimit="10" d="M590.2574,332.2309
		c13.9036-66.0813-38.3443-132.9135-116.8161-149.424"/>
	<path fill="none" stroke="#CA3353" stroke-width="2.1444" stroke-linecap="round" stroke-miterlimit="10" d="M593.2108,312.3188
		c-36.8954-56.5578-121.0977-66.8705-188.26-23.0573"/>
	<path fill="none" stroke="#CA3353" stroke-width="2.1444" stroke-linecap="round" stroke-miterlimit="10" d="M581.2192,296.1504
		c-66.0815-13.9034-132.9135,38.3443-149.424,116.8161"/>
</g>
<g>
	<path fill="none" stroke="#CA3353" stroke-width="2.1444" stroke-linecap="round" stroke-miterlimit="10" d="M559.1058,293.8516
		c-53.1236,41.6886-56.0515,126.4695-6.5464,189.5537"/>
	<path fill="none" stroke="#CA3353" stroke-width="2.1444" stroke-linecap="round" stroke-miterlimit="10" d="M544.045,307.2079
		c-8.0859,67.0423,49.7929,129.0618,129.4058,138.6638"/>
	<path fill="none" stroke="#CA3353" stroke-width="2.1444" stroke-linecap="round" stroke-miterlimit="10" d="M542.8398,327.3019
		c41.6887,53.1236,126.4695,56.0515,189.5537,6.5464"/>
	<path fill="none" stroke="#CA3353" stroke-width="2.1444" stroke-linecap="round" stroke-miterlimit="10" d="M556.1963,342.3628
		c67.0425,8.0858,129.0618-49.793,138.6638-129.4059"/>
	<path fill="none" stroke="#CA3353" stroke-width="2.1444" stroke-linecap="round" stroke-miterlimit="10" d="M576.2902,343.568
		c53.1236-41.6886,56.0515-126.4695,6.5464-189.5537"/>
	<path fill="none" stroke="#CA3353" stroke-width="2.1444" stroke-linecap="round" stroke-miterlimit="10" d="M591.351,330.2114
		c8.0859-67.0423-49.7929-129.0618-129.4058-138.6638"/>
	<path fill="none" stroke="#CA3353" stroke-width="2.1444" stroke-linecap="round" stroke-miterlimit="10" d="M592.556,310.1176
		c-41.6887-53.1236-126.4695-56.0515-189.5537-6.5464"/>
	<path fill="none" stroke="#CA3353" stroke-width="2.1444" stroke-linecap="round" stroke-miterlimit="10" d="M579.1997,295.0568
		c-67.0425-8.0858-129.0618,49.793-138.6638,129.4059"/>
</g>
<path fill="none" stroke="#9DB2ED" stroke-miterlimit="10" d="M117.5515,236.1953"/>
<line fill="none" stroke="#CA3353" stroke-width="2.1444" stroke-linecap="round" stroke-miterlimit="10" x1="566.8651" y1="317.8768" x2="109" y2="317.8768"/>
<circle fill="none" stroke="#CA3353" stroke-width="8" stroke-miterlimit="10" cx="567.8651" cy="318.8768" r="166.9634"/>
</svg>
