<?xml version="1.0" encoding="utf-8"?>
<!-- Generator: Adobe Illustrator 18.1.1, SVG Export Plug-In . SVG Version: 6.00 Build 0)  -->
<svg version="1.1" id="Layer_1" xmlns="http://www.w3.org/2000/svg" xmlns:xlink="http://www.w3.org/1999/xlink" x="0px" y="0px"
	 viewBox="0 0 195.0704 16.3412" enable-background="new 0 0 195.0704 16.3412" xml:space="preserve">
<path fill="#9DB2ED" d="M186.8998,16.3412H8.1706C3.6768,16.3412,0,12.6644,0,8.1706v0C0,3.6768,3.6768,0,8.1706,0h178.7293
	c4.4938,0,8.1706,3.6768,8.1706,8.1706v0C195.0704,12.6644,191.3937,16.3412,186.8998,16.3412z"/>
<path fill="#140337" d="M106.7838,13.6493H88.4392c-3.0133,0-5.4787-2.4654-5.4787-5.4787v0c0-3.0133,2.4654-5.4787,5.4787-5.4787
	h18.3446c3.0133,0,5.4787,2.4654,5.4787,5.4787v0C112.2626,11.1839,109.7971,13.6493,106.7838,13.6493z"/>
</svg>
