<?xml version="1.0" encoding="utf-8"?>
<!-- Generator: Adobe Illustrator 18.1.1, SVG Export Plug-In . SVG Version: 6.00 Build 0)  -->
<svg version="1.1" id="Layer_1" xmlns="http://www.w3.org/2000/svg" xmlns:xlink="http://www.w3.org/1999/xlink" x="0px" y="0px"
	 viewBox="-3.0914 -4 316.8984 316.8984" enable-background="new -3.0914 -4 316.8984 316.8984" xml:space="preserve">
<g>
	<path fill="none" stroke="#CA3353" stroke-width="2" stroke-linecap="round" stroke-miterlimit="10" d="M163.0261,132.6541
		c-62.9445-2.1033-115.8995,56.6788-118.3972,131.4254"/>
	<path fill="none" stroke="#CA3353" stroke-width="2" stroke-linecap="round" stroke-miterlimit="10" d="M144.2587,133.1557
		c-45.9958,43.0211-41.8754,122.0312,9.2123,176.6514"/>
	<path fill="none" stroke="#CA3353" stroke-width="2" stroke-linecap="round" stroke-miterlimit="10" d="M131.3428,146.7809
		c-2.1033,62.9445,56.6788,115.8995,131.4253,118.3972"/>
	<path fill="none" stroke="#CA3353" stroke-width="2" stroke-linecap="round" stroke-miterlimit="10" d="M131.8443,165.5485
		c43.0213,45.9958,122.0312,41.8754,176.6514-9.2123"/>
	<path fill="none" stroke="#CA3353" stroke-width="2" stroke-linecap="round" stroke-miterlimit="10" d="M145.4696,178.4644
		c62.9445,2.1033,115.8995-56.6788,118.3972-131.4253"/>
	<path fill="none" stroke="#CA3353" stroke-width="2" stroke-linecap="round" stroke-miterlimit="10" d="M164.2372,177.9627
		c45.9958-43.0211,41.8754-122.0312-9.2123-176.6514"/>
	<path fill="none" stroke="#CA3353" stroke-width="2" stroke-linecap="round" stroke-miterlimit="10" d="M177.1529,164.3375
		c2.1033-62.9445-56.6788-115.8995-131.4254-118.3972"/>
	<path fill="none" stroke="#CA3353" stroke-width="2" stroke-linecap="round" stroke-miterlimit="10" d="M176.6514,145.5701
		C133.63,99.5742,54.6201,103.6947,0,154.7824"/>
</g>
<circle fill="none" stroke="#CA3353" stroke-width="8" stroke-linecap="round" stroke-miterlimit="10" cx="155.3578" cy="154.4492" r="154.4492"/>
</svg>
