<?xml version="1.0" encoding="utf-8"?>
<!-- Generator: Adobe Illustrator 18.1.1, SVG Export Plug-In . SVG Version: 6.00 Build 0)  -->
<svg version="1.1" id="Layer_1" xmlns="http://www.w3.org/2000/svg" xmlns:xlink="http://www.w3.org/1999/xlink" x="0px" y="0px"
	 viewBox="-5.2368 -2.7639 317.4015 317.4016" enable-background="new -5.2368 -2.7639 317.4015 317.4016" xml:space="preserve">
<circle fill="none" stroke="#CA3353" stroke-width="8.0127" stroke-linecap="round" stroke-miterlimit="10" cx="153.4639" cy="155.9369" r="154.6944"/>
<g>
	<path fill="none" stroke="#CA3353" stroke-width="2" stroke-linecap="round" stroke-miterlimit="10" d="M-0.2162,155.6917
		c45.094-53.6506,125.1424-60.5871,178.793-15.4931"/>
	<path fill="none" stroke="#CA3353" stroke-width="2" stroke-linecap="round" stroke-miterlimit="10" d="M44.9667,47.0884
		c69.823-6.0504,131.3306,45.6475,137.381,115.4705"/>
	<path fill="none" stroke="#CA3353" stroke-width="2" stroke-linecap="round" stroke-miterlimit="10" d="M153.71,2.2434
		c53.6506,45.094,60.5871,125.1424,15.4931,178.793"/>
	<path fill="none" stroke="#CA3353" stroke-width="2" stroke-linecap="round" stroke-miterlimit="10" d="M262.3133,47.4263
		c6.0504,69.823-45.6475,131.3306-115.4705,137.381"/>
	<path fill="none" stroke="#CA3353" stroke-width="2" stroke-linecap="round" stroke-miterlimit="10" d="M307.1583,156.1696
		c-45.0941,53.6506-125.1424,60.5871-178.793,15.4931"/>
	<path fill="none" stroke="#CA3353" stroke-width="2" stroke-linecap="round" stroke-miterlimit="10" d="M261.9754,264.7729
		c-69.823,6.0504-131.3306-45.6475-137.381-115.4705"/>
	<path fill="none" stroke="#CA3353" stroke-width="2" stroke-linecap="round" stroke-miterlimit="10" d="M153.2321,309.6179
		c-53.6506-45.0941-60.5871-125.1424-15.4931-178.793"/>
	<path fill="none" stroke="#CA3353" stroke-width="2" stroke-linecap="round" stroke-miterlimit="10" d="M44.6288,264.435
		c-6.0504-69.823,45.6475-131.3306,115.4705-137.381"/>
</g>
</svg>
