<?xml version="1.0" encoding="utf-8"?>
<!-- Generator: Adobe Illustrator 18.1.1, SVG Export Plug-In . SVG Version: 6.00 Build 0)  -->
<svg version="1.1" id="Layer_1" xmlns="http://www.w3.org/2000/svg" xmlns:xlink="http://www.w3.org/1999/xlink" x="0px" y="0px"
	 viewBox="0 0 103.7432 103.7432" enable-background="new 0 0 103.7432 103.7432" xml:space="preserve">
<g>
	<path fill="none" stroke="#CE3D64" stroke-width="2" stroke-miterlimit="10" d="M48.9585,44.2703
		c20.8887-0.698,38.4623,18.8094,39.2912,43.6147"/>
	<path fill="none" stroke="#CE3D64" stroke-width="2" stroke-miterlimit="10" d="M55.1866,44.4368
		c15.2641,14.277,13.8967,40.4972-3.0572,58.6233"/>
	<path fill="none" stroke="#CE3D64" stroke-width="2" stroke-miterlimit="10" d="M59.4729,48.9585
		c0.698,20.8887-18.8094,38.4623-43.6147,39.2912"/>
	<path fill="none" stroke="#CE3D64" stroke-width="2" stroke-miterlimit="10" d="M59.3064,55.1866
		c-14.277,15.2641-40.4972,13.8967-58.6233-3.0572"/>
	<path fill="none" stroke="#CE3D64" stroke-width="2" stroke-miterlimit="10" d="M54.7848,59.4729
		c-20.8887,0.698-38.4623-18.8094-39.2912-43.6147"/>
	<path fill="none" stroke="#CE3D64" stroke-width="2" stroke-miterlimit="10" d="M48.5566,59.3064
		c-15.2641-14.277-13.8968-40.4972,3.0572-58.6233"/>
	<path fill="none" stroke="#CE3D64" stroke-width="2" stroke-miterlimit="10" d="M44.2703,54.7848
		c-0.698-20.8887,18.8094-38.4623,43.6147-39.2912"/>
	<path fill="none" stroke="#CE3D64" stroke-width="2" stroke-miterlimit="10" d="M44.4368,48.5566
		c14.277-15.2641,40.4972-13.8968,58.6233,3.0572"/>
</g>
</svg>
